SourceSans_ExtraLight-Italic.ufo
<glyph name="slash" format="2">
	<unicode hex="002F"/>
	<advance width="350"/>
	<outline>
		<contour>
			<point x="-74" y="-160" type="line"/>
			<point x="-46" y="-160" type="line"/>
			<point x="438" y="710" type="line"/>
			<point x="410" y="710" type="line"/>
		</contour>
	</outline>
</glyph>
<glyph name="zero" format="2">
	<unicode hex="0030"/>
	<advance width="456"/>
	<outline>
		<contour>
			<point x="186" y="-12" type="curve" smooth="yes"/>
			<point x="332" y="-12"/>
			<point x="436" y="238"/>
			<point x="436" y="442" type="curve" smooth="yes"/>
			<point x="436" y="544"/>
			<point x="394" y="652"/>
			<point x="296" y="652" type="curve" smooth="yes"/>
			<point x="150" y="652"/>
			<point x="46" y="400"/>
			<point x="46" y="196" type="curve" smooth="yes"/>
			<point x="46" y="92"/>
			<point x="86" y="-12"/>
		</contour>
		<contour>
			<point x="186" y="14" type="curve" smooth="yes"/>
			<point x="106" y="14"/>
			<point x="74" y="106"/>
			<point x="74" y="202" type="curve" smooth="yes"/>
			<point x="74" y="376"/>
			<point x="166" y="626"/>
			<point x="294" y="626" type="curve" smooth="yes"/>
			<point x="374" y="626"/>
			<point x="408" y="534"/>
			<point x="408" y="436" type="curve" smooth="yes"/>
			<point x="408" y="260"/>
			<point x="314" y="14"/>
		</contour>
	</outline>
</glyph>
<glyph name="L" format="2">
	<unicode hex="004C"/>
	<advance width="432"/>
	<outline>
		<contour>
			<point x="40" y="0" type="line"/>
			<point x="370" y="0" type="line"/>
			<point x="376" y="26" type="line"/>
			<point x="76" y="26" type="line"/>
			<point x="202" y="660" type="line"/>
			<point x="172" y="660" type="line"/>
		</contour>
	</outline>
	<anchor name="aboveUC" x="200" y="682"/>
	<anchor name="belowLC" x="220" y="-22"/>
	<anchor name="center" x="140" y="360"/>
</glyph>
<glyph name="X" format="2">
	<unicode hex="0058"/>
	<advance width="446"/>
	<outline>
		<contour>
			<point x="-36" y="0" type="line"/>
			<point x="-2" y="0" type="line"/>
			<point x="156" y="212" type="line" smooth="yes"/>
			<point x="180" y="244"/>
			<point x="206" y="280"/>
			<point x="234" y="318" type="curve"/>
			<point x="236" y="318" type="line"/>
			<point x="248" y="284"/>
			<point x="261" y="250"/>
			<point x="272" y="218" type="curve" smooth="yes"/>
			<point x="348" y="0" type="line"/>
			<point x="380" y="0" type="line"/>
			<point x="256" y="338" type="line"/>
			<point x="500" y="660" type="line"/>
			<point x="466" y="660" type="line"/>
			<point x="314" y="456" type="line" smooth="yes"/>
			<point x="292" y="426"/>
			<point x="270" y="398"/>
			<point x="246" y="366" type="curve"/>
			<point x="244" y="366" type="line"/>
			<point x="232" y="396"/>
			<point x="224" y="420"/>
			<point x="214" y="450" type="curve" smooth="yes"/>
			<point x="142" y="660" type="line"/>
			<point x="110" y="660" type="line"/>
			<point x="224" y="344" type="line"/>
		</contour>
	</outline>
	<anchor name="aboveUC" x="300" y="682"/>
	<anchor name="belowLC" x="180" y="-22"/>
</glyph>
<glyph name="backslash" format="2">
	<unicode hex="005C"/>
	<advance width="350"/>
	<outline>
		<contour>
			<point x="238" y="-160" type="line"/>
			<point x="262" y="-160" type="line"/>
			<point x="114" y="710" type="line"/>
			<point x="90" y="710" type="line"/>
		</contour>
	</outline>
</glyph>
<glyph name="d" format="2">
	<unicode hex="0064"/>
	<advance width="526"/>
	<outline>
		<contour>
			<point x="186" y="-12" type="curve" smooth="yes"/>
			<point x="254" y="-12"/>
			<point x="316" y="26"/>
			<point x="366" y="78" type="curve"/>
			<point x="370" y="78" type="line"/>
			<point x="358" y="0" type="line"/>
			<point x="382" y="0" type="line"/>
			<point x="528" y="722" type="line"/>
			<point x="500" y="722" type="line"/>
			<point x="456" y="506" type="line"/>
			<point x="436" y="410" type="line"/>
			<point x="432" y="410" type="line"/>
			<point x="406" y="458"/>
			<point x="364" y="490"/>
			<point x="306" y="490" type="curve" smooth="yes"/>
			<point x="174" y="490"/>
			<point x="46" y="344"/>
			<point x="46" y="160" type="curve" smooth="yes"/>
			<point x="46" y="48"/>
			<point x="102" y="-12"/>
		</contour>
		<contour>
			<point x="188" y="14" type="curve" smooth="yes"/>
			<point x="118" y="14"/>
			<point x="74" y="64"/>
			<point x="74" y="166" type="curve" smooth="yes"/>
			<point x="74" y="314"/>
			<point x="184" y="464"/>
			<point x="304" y="464" type="curve" smooth="yes"/>
			<point x="352" y="464"/>
			<point x="392" y="438"/>
			<point x="430" y="372" type="curve"/>
			<point x="378" y="122" type="line"/>
			<point x="318" y="54"/>
			<point x="254" y="14"/>
		</contour>
	</outline>
	<anchor name="aboveUC" x="350" y="732"/>
	<anchor name="belowLC" x="210" y="-22"/>
	<anchor name="center" x="470" y="600"/>
</glyph>
<glyph name="brokenbar" format="2">
	<unicode hex="00A6"/>
	<advance width="212"/>
	<outline>
		<contour>
			<point x="100" y="274" type="line"/>
			<point x="126" y="274" type="line"/>
			<point x="126" y="750" type="line"/>
			<point x="100" y="750" type="line"/>
		</contour>
		<contour>
			<point x="100" y="-250" type="line"/>
			<point x="126" y="-250" type="line"/>
			<point x="126" y="220" type="line"/>
			<point x="100" y="220" type="line"/>
		</contour>
	</outline>
</glyph>
<glyph name="logicalnot" format="2">
	<unicode hex="00AC"/>
	<advance width="456"/>
	<outline>
		<contour>
			<point x="408" y="110" type="line"/>
			<point x="436" y="110" type="line"/>
			<point x="436" y="344" type="line"/>
			<point x="48" y="344" type="line"/>
			<point x="48" y="318" type="line"/>
			<point x="408" y="318" type="line"/>
		</contour>
	</outline>
</glyph>
<glyph name="degree" format="2">
	<unicode hex="00B0"/>
	<advance width="284"/>
	<outline>
		<contour>
			<point x="198" y="456" type="curve" smooth="yes"/>
			<point x="262" y="456"/>
			<point x="312" y="516"/>
			<point x="312" y="586" type="curve" smooth="yes"/>
			<point x="312" y="644"/>
			<point x="272" y="684"/>
			<point x="220" y="684" type="curve" smooth="yes"/>
			<point x="156" y="684"/>
			<point x="106" y="624"/>
			<point x="106" y="554" type="curve" smooth="yes"/>
			<point x="106" y="496"/>
			<point x="146" y="456"/>
		</contour>
		<contour>
			<point x="200" y="480" type="curve" smooth="yes"/>
			<point x="158" y="480"/>
			<point x="132" y="514"/>
			<point x="132" y="558" type="curve" smooth="yes"/>
			<point x="132" y="608"/>
			<point x="166" y="660"/>
			<point x="218" y="660" type="curve" smooth="yes"/>
			<point x="260" y="660"/>
			<point x="286" y="626"/>
			<point x="286" y="582" type="curve" smooth="yes"/>
			<point x="286" y="532"/>
			<point x="252" y="480"/>
		</contour>
	</outline>
</glyph>
<glyph name="paragraph" format="2">
	<unicode hex="00B6"/>
	<advance width="476"/>
	<outline>
		<contour>
			<point x="288" y="-80" type="line"/>
			<point x="316" y="-80" type="line"/>
			<point x="464" y="660" type="line"/>
			<point x="436" y="660" type="line"/>
		</contour>
		<contour>
			<point x="300" y="248" type="curve" smooth="yes"/>
			<point x="302" y="248" type="line"/>
			<point x="386" y="660" type="line"/>
			<point x="334" y="660" type="line" smooth="yes"/>
			<point x="204" y="660"/>
			<point x="76" y="578"/>
			<point x="76" y="418" type="curve" smooth="yes"/>
			<point x="76" y="306"/>
			<point x="178" y="248"/>
		</contour>
	</outline>
</glyph>
<glyph name="Thorn" format="2">
	<unicode hex="00DE"/>
	<advance width="536"/>
	<outline>
		<contour>
			<point x="40" y="0" type="line"/>
			<point x="70" y="0" type="line"/>
			<point x="104" y="170" type="line"/>
			<point x="230" y="170" type="line" smooth="yes"/>
			<point x="400" y="170"/>
			<point x="506" y="242"/>
			<point x="506" y="386" type="curve" smooth="yes"/>
			<point x="506" y="490"/>
			<point x="434" y="536"/>
			<point x="314" y="536" type="curve" smooth="yes"/>
			<point x="178" y="536" type="line"/>
			<point x="202" y="660" type="line"/>
			<point x="172" y="660" type="line"/>
		</contour>
		<contour>
			<point x="110" y="196" type="line"/>
			<point x="172" y="510" type="line"/>
			<point x="296" y="510" type="line" smooth="yes"/>
			<point x="414" y="510"/>
			<point x="476" y="474"/>
			<point x="476" y="384" type="curve" smooth="yes"/>
			<point x="476" y="260"/>
			<point x="390" y="196"/>
			<point x="224" y="196" type="curve" smooth="yes"/>
		</contour>
	</outline>
</glyph>
<glyph name="hbar" format="2">
	<unicode hex="0127"/>
	<advance width="524"/>
	<outline>
		<contour>
			<point x="64" y="0" type="line"/>
			<point x="92" y="0" type="line"/>
			<point x="160" y="338" type="line"/>
			<point x="236" y="412"/>
			<point x="296" y="444"/>
			<point x="340" y="444" type="curve" smooth="yes"/>
			<point x="404" y="444"/>
			<point x="430" y="412"/>
			<point x="430" y="350" type="curve" smooth="yes"/>
			<point x="430" y="330"/>
			<point x="428" y="316"/>
			<point x="422" y="286" type="curve" smooth="yes"/>
			<point x="364" y="0" type="line"/>
			<point x="392" y="0" type="line"/>
			<point x="450" y="290" type="line" smooth="yes"/>
			<point x="456" y="318"/>
			<point x="458" y="330"/>
			<point x="458" y="354" type="curve" smooth="yes"/>
			<point x="458" y="422"/>
			<point x="426" y="470"/>
			<point x="344" y="470" type="curve" smooth="yes"/>
			<point x="286" y="470"/>
			<point x="232" y="432"/>
			<point x="168" y="378" type="curve"/>
			<point x="164" y="378" type="line"/>
			<point x="176" y="424" type="line"/>
			<point x="236" y="722" type="line"/>
			<point x="208" y="722" type="line"/>
		</contour>
		<contour>
			<point x="88" y="584" type="line"/>
			<point x="394" y="584" type="line"/>
			<point x="400" y="610" type="line"/>
			<point x="186" y="610" type="line"/>
			<point x="92" y="606" type="line"/>
		</contour>
	</outline>
</glyph>
<glyph name="tbar" format="2">
	<unicode hex="0167"/>
	<advance width="290"/>
	<outline>
		<contour>
			<point x="26" y="240" type="line"/>
			<point x="262" y="240" type="line"/>
			<point x="268" y="266" type="line"/>
			<point x="108" y="266" type="line"/>
			<point x="30" y="262" type="line"/>
		</contour>
		<component base="t"/>
	</outline>
	<anchor name="aboveLC" x="200" y="632"/>
	<anchor name="belowLC" x="150" y="-22"/>
</glyph>
<glyph name="Bhook" format="2">
	<unicode hex="0181"/>
	<advance width="664"/>
	<outline>
		<contour>
			<point x="184" y="0" type="line"/>
			<point x="344" y="0" type="line" smooth="yes"/>
			<point x="502" y="0"/>
			<point x="608" y="66"/>
			<point x="608" y="206" type="curve" smooth="yes"/>
			<point x="608" y="290"/>
			<point x="546" y="334"/>
			<point x="482" y="348" type="curve"/>
			<point x="482" y="352" type="line"/>
			<point x="544" y="362"/>
			<point x="632" y="418"/>
			<point x="632" y="518" type="curve" smooth="yes"/>
			<point x="632" y="614"/>
			<point x="563" y="672"/>
			<point x="398" y="672" type="curve" smooth="yes"/>
			<point x="171" y="672"/>
			<point x="64" y="504"/>
			<point x="64" y="396" type="curve" smooth="yes"/>
			<point x="64" y="332"/>
			<point x="94" y="292"/>
			<point x="140" y="270" type="curve"/>
			<point x="154" y="292" type="line"/>
			<point x="112" y="316"/>
			<point x="94" y="344"/>
			<point x="94" y="398" type="curve" smooth="yes"/>
			<point x="94" y="492"/>
			<point x="190" y="646"/>
			<point x="394" y="646" type="curve" smooth="yes"/>
			<point x="398" y="646" type="line" smooth="yes"/>
			<point x="552" y="646"/>
			<point x="602" y="598"/>
			<point x="602" y="516" type="curve" smooth="yes"/>
			<point x="602" y="428"/>
			<point x="526" y="364"/>
			<point x="374" y="364" type="curve" smooth="yes"/>
			<point x="286" y="364" type="line"/>
			<point x="346" y="660" type="line"/>
			<point x="316" y="660" type="line"/>
		</contour>
		<contour>
			<point x="218" y="26" type="line"/>
			<point x="282" y="338" type="line"/>
			<point x="392" y="338" type="line" smooth="yes"/>
			<point x="510" y="338"/>
			<point x="578" y="288"/>
			<point x="578" y="203" type="curve" smooth="yes"/>
			<point x="578" y="74"/>
			<point x="476" y="26"/>
			<point x="326" y="26" type="curve" smooth="yes"/>
		</contour>
	</outline>
	<anchor name="aboveUC" x="450" y="682"/>
	<anchor name="belowLC" x="380" y="-22"/>
</glyph>
<glyph name="clickalveolar" format="2">
	<unicode hex="01C2"/>
	<advance width="302"/>
	<outline>
		<contour>
			<point x="34" y="272" type="line"/>
			<point x="276" y="272" type="line"/>
			<point x="282" y="298" type="line"/>
			<point x="118" y="298" type="line"/>
			<point x="38" y="294" type="line"/>
		</contour>
		<contour>
			<point x="64" y="424" type="line"/>
			<point x="306" y="424" type="line"/>
			<point x="312" y="450" type="line"/>
			<point x="148" y="450" type="line"/>
			<point x="68" y="446" type="line"/>
		</contour>
		<component base="l.a" xOffset="46"/>
	</outline>
	<anchor name="aboveUC" x="246" y="732"/>
	<anchor name="belowLC" x="106" y="-22"/>
</glyph>
<glyph name="ou" format="2">
	<unicode hex="0223"/>
	<advance width="522"/>
	<outline>
		<contour>
			<point x="230" y="14" type="curve" smooth="yes"/>
			<point x="140" y="14"/>
			<point x="78" y="78"/>
			<point x="78" y="162" type="curve" smooth="yes"/>
			<point x="78" y="262"/>
			<point x="150" y="354"/>
			<point x="264" y="398" type="curve"/>
			<point x="374" y="346"/>
			<point x="430" y="292"/>
			<point x="430" y="196" type="curve" smooth="yes"/>
			<point x="430" y="114"/>
			<point x="356" y="14"/>
		</contour>
		<contour>
			<point x="228" y="-12" type="curve" smooth="yes"/>
			<point x="374" y="-12"/>
			<point x="458" y="98"/>
			<point x="458" y="198" type="curve" smooth="yes"/>
			<point x="458" y="286"/>
			<point x="410" y="338"/>
			<point x="364" y="374" type="curve"/>
			<point x="364" y="378" type="line"/>
			<point x="466" y="440"/>
			<point x="514" y="531"/>
			<point x="514" y="634" type="curve" smooth="yes"/>
			<point x="514" y="668"/>
			<point x="509" y="694"/>
			<point x="494" y="724" type="curve"/>
			<point x="470" y="712" type="line"/>
			<point x="480" y="688"/>
			<point x="486" y="660"/>
			<point x="486" y="634" type="curve" smooth="yes"/>
			<point x="486" y="543"/>
			<point x="444" y="452"/>
			<point x="338" y="390" type="curve"/>
			<point x="222" y="450"/>
			<point x="190" y="500"/>
			<point x="190" y="575" type="curve" smooth="yes"/>
			<point x="190" y="626"/>
			<point x="214" y="676"/>
			<point x="252" y="720" type="curve"/>
			<point x="232" y="734" type="line"/>
			<point x="194" y="690"/>
			<point x="162" y="636"/>
			<point x="162" y="571" type="curve" smooth="yes"/>
			<point x="162" y="498"/>
			<point x="196" y="458"/>
			<point x="242" y="418" type="curve"/>
			<point x="242" y="414" type="line"/>
			<point x="148" y="374"/>
			<point x="50" y="290"/>
			<point x="50" y="156" type="curve" smooth="yes"/>
			<point x="50" y="62"/>
			<point x="120" y="-12"/>
		</contour>
	</outline>
	<anchor name="aboveUC" x="360" y="732"/>
	<anchor name="belowLC" x="220" y="-22"/>
</glyph>
<glyph name="Cstroke" format="2">
	<unicode hex="023B"/>
	<advance width="536"/>
	<outline>
		<contour>
			<point x="106" y="-38" type="line"/>
			<point x="510" y="688" type="line"/>
			<point x="488" y="700" type="line"/>
			<point x="84" y="-26" type="line"/>
		</contour>
		<component base="C"/>
	</outline>
	<anchor name="aboveUC" x="380" y="682"/>
	<anchor name="belowLC" x="260" y="-22"/>
</glyph>
<glyph name="ereversed" format="2">
	<unicode hex="0258"/>
	<advance width="468"/>
	<outline>
		<contour>
			<point x="178" y="-12" type="curve" smooth="yes"/>
			<point x="320" y="-12"/>
			<point x="432" y="128"/>
			<point x="432" y="310" type="curve" smooth="yes"/>
			<point x="432" y="420"/>
			<point x="369" y="490"/>
			<point x="276" y="490" type="curve" smooth="yes"/>
			<point x="131" y="490"/>
			<point x="62" y="362"/>
			<point x="52" y="242" type="curve"/>
			<point x="404" y="242" type="line"/>
			<point x="408" y="268" type="line"/>
			<point x="84" y="268" type="line"/>
			<point x="92" y="348"/>
			<point x="156" y="464"/>
			<point x="274" y="464" type="curve" smooth="yes"/>
			<point x="349" y="464"/>
			<point x="404" y="402"/>
			<point x="404" y="308" type="curve" smooth="yes"/>
			<point x="404" y="150"/>
			<point x="302" y="14"/>
			<point x="180" y="14" type="curve" smooth="yes"/>
			<point x="120" y="14"/>
			<point x="76" y="32"/>
			<point x="44" y="60" type="curve"/>
			<point x="28" y="38" type="line"/>
			<point x="62" y="8"/>
			<point x="104" y="-12"/>
		</contour>
	</outline>
	<anchor name="aboveLC" x="280" y="502"/>
	<anchor name="belowLC" x="190" y="-22"/>
	<anchor name="ogonekLC" x="230" y="0"/>
</glyph>
<glyph name="eopen" format="2">
	<unicode hex="025B"/>
	<advance width="396"/>
	<outline>
		<contour>
			<point x="174" y="-12" type="curve" smooth="yes"/>
			<point x="242" y="-12"/>
			<point x="288" y="6"/>
			<point x="350" y="48" type="curve"/>
			<point x="338" y="66" type="line"/>
			<point x="278" y="26"/>
			<point x="232" y="14"/>
			<point x="176" y="14" type="curve" smooth="yes"/>
			<point x="100" y="14"/>
			<point x="50" y="50"/>
			<point x="50" y="110" type="curve" smooth="yes"/>
			<point x="50" y="190"/>
			<point x="124" y="242"/>
			<point x="238" y="242" type="curve" smooth="yes"/>
			<point x="296" y="242" type="line"/>
			<point x="302" y="268" type="line"/>
			<point x="258" y="268" type="line" smooth="yes"/>
			<point x="164" y="268"/>
			<point x="128" y="306"/>
			<point x="128" y="358" type="curve" smooth="yes"/>
			<point x="128" y="424"/>
			<point x="182" y="464"/>
			<point x="266" y="464" type="curve" smooth="yes"/>
			<point x="314" y="464"/>
			<point x="350" y="448"/>
			<point x="386" y="420" type="curve"/>
			<point x="402" y="438" type="line"/>
			<point x="368" y="468"/>
			<point x="324" y="490"/>
			<point x="268" y="490" type="curve" smooth="yes"/>
			<point x="168" y="490"/>
			<point x="100" y="436"/>
			<point x="100" y="352" type="curve" smooth="yes"/>
			<point x="100" y="304"/>
			<point x="136" y="274"/>
			<point x="168" y="262" type="curve"/>
			<point x="168" y="258" type="line"/>
			<point x="100" y="244"/>
			<point x="22" y="200"/>
			<point x="22" y="104" type="curve" smooth="yes"/>
			<point x="22" y="34"/>
			<point x="78" y="-12"/>
		</contour>
	</outline>
	<anchor name="aboveLC" x="280" y="502"/>
	<anchor name="baseLC" x="170" y="0"/>
	<anchor name="belowLC" x="160" y="-22"/>
	<anchor name="ogonekLC" x="170" y="0"/>
</glyph>
<glyph name="philatin" format="2">
	<unicode hex="0278"/>
	<advance width="604"/>
	<outline>
		<contour>
			<point x="254" y="-10" type="curve"/>
			<point x="260" y="14" type="line"/>
			<point x="176" y="14"/>
			<point x="74" y="76"/>
			<point x="74" y="206" type="curve" smooth="yes"/>
			<point x="74" y="360"/>
			<point x="200" y="462"/>
			<point x="338" y="464" type="curve"/>
			<point x="344" y="488" type="line"/>
			<point x="184" y="486"/>
			<point x="46" y="378"/>
			<point x="46" y="200" type="curve" smooth="yes"/>
			<point x="46" y="62"/>
			<point x="162" y="-10"/>
		</contour>
		<contour>
			<point x="260" y="-10" type="line"/>
			<point x="420" y="-8"/>
			<point x="558" y="100"/>
			<point x="558" y="278" type="curve" smooth="yes"/>
			<point x="558" y="416"/>
			<point x="442" y="488"/>
			<point x="350" y="488" type="curve"/>
			<point x="344" y="464" type="line"/>
			<point x="428" y="464"/>
			<point x="530" y="402"/>
			<point x="530" y="272" type="curve" smooth="yes"/>
			<point x="530" y="118"/>
			<point x="404" y="16"/>
			<point x="266" y="14" type="curve"/>
		</contour>
		<contour>
			<point x="196" y="-222" type="line"/>
			<point x="224" y="-222" type="line"/>
			<point x="412" y="722" type="line"/>
			<point x="384" y="722" type="line"/>
		</contour>
	</outline>
	<anchor name="aboveUC" x="410" y="732"/>
	<anchor name="belowLC" x="210" y="-222"/>
</glyph>
<glyph name="rfishhook" format="2">
	<unicode hex="027E"/>
	<advance width="308"/>
	<outline>
		<contour>
			<point x="44" y="0" type="line"/>
			<point x="72" y="0" type="line"/>
			<point x="134" y="314" type="line" smooth="yes"/>
			<point x="154" y="414"/>
			<point x="202" y="462"/>
			<point x="272" y="462" type="curve" smooth="yes"/>
			<point x="294" y="462"/>
			<point x="308" y="460"/>
			<point x="327" y="450" type="curve"/>
			<point x="340" y="476" type="line"/>
			<point x="320" y="486"/>
			<point x="304" y="490"/>
			<point x="279" y="490" type="curve" smooth="yes"/>
			<point x="196" y="490"/>
			<point x="132" y="440"/>
			<point x="108" y="320" type="curve" smooth="yes"/>
		</contour>
	</outline>
	<anchor name="aboveLC" x="290" y="502"/>
	<anchor name="belowLC" x="148" y="-22"/>
	<anchor name="center" x="120" y="220"/>
</glyph>
<glyph name="upsilonlatin" format="2">
	<unicode hex="028A"/>
	<advance width="500"/>
	<outline>
		<contour>
			<point x="212" y="-12" type="curve" smooth="yes"/>
			<point x="338" y="-12"/>
			<point x="454" y="116"/>
			<point x="454" y="280" type="curve" smooth="yes"/>
			<point x="454" y="336"/>
			<point x="428" y="416"/>
			<point x="396" y="450" type="curve"/>
			<point x="396" y="452" type="line"/>
			<point x="514" y="452" type="line"/>
			<point x="520" y="478" type="line"/>
			<point x="360" y="478" type="line"/>
			<point x="356" y="458" type="line"/>
			<point x="400" y="424"/>
			<point x="426" y="340"/>
			<point x="426" y="274" type="curve" smooth="yes"/>
			<point x="426" y="132"/>
			<point x="318" y="14"/>
			<point x="214" y="14" type="curve" smooth="yes"/>
			<point x="124" y="14"/>
			<point x="74" y="68"/>
			<point x="74" y="170" type="curve" smooth="yes"/>
			<point x="74" y="296"/>
			<point x="150" y="402"/>
			<point x="238" y="458" type="curve"/>
			<point x="242" y="478" type="line"/>
			<point x="80" y="478" type="line"/>
			<point x="74" y="452" type="line"/>
			<point x="192" y="452" type="line"/>
			<point x="192" y="450" type="line"/>
			<point x="118" y="398"/>
			<point x="46" y="290"/>
			<point x="46" y="164" type="curve" smooth="yes"/>
			<point x="46" y="52"/>
			<point x="112" y="-12"/>
		</contour>
	</outline>
	<anchor name="aboveLC" x="300" y="502"/>
	<anchor name="belowLC" x="210" y="-22"/>
	<anchor name="ogonekLC" x="210" y="0"/>
</glyph>
<glyph name="glottalstopstroke" format="2">
	<unicode hex="02A1"/>
	<advance width="412"/>
	<outline>
		<contour>
			<point x="24" y="154" type="line"/>
			<point x="300" y="154" type="line"/>
			<point x="306" y="180" type="line"/>
			<point x="104" y="180" type="line"/>
			<point x="28" y="176" type="line"/>
		</contour>
		<component base="glottalstop" xOffset="10"/>
	</outline>
	<anchor name="aboveUC" x="290" y="732"/>
	<anchor name="belowLC" x="130" y="-22"/>
</glyph>
<glyph name="dzed" format="2">
	<unicode hex="02A3"/>
	<advance width="764"/>
	<outline>
		<contour>
			<point x="176" y="-12" type="curve" smooth="yes"/>
			<point x="240" y="-12"/>
			<point x="297" y="27"/>
			<point x="346" y="78" type="curve"/>
			<point x="350" y="78" type="line"/>
			<point x="338" y="0" type="line"/>
			<point x="362" y="0" type="line"/>
			<point x="508" y="722" type="line"/>
			<point x="480" y="722" type="line"/>
			<point x="436" y="506" type="line"/>
			<point x="416" y="410" type="line"/>
			<point x="412" y="410" type="line"/>
			<point x="386" y="457"/>
			<point x="349" y="490"/>
			<point x="296" y="490" type="curve" smooth="yes"/>
			<point x="168" y="490"/>
			<point x="46" y="340"/>
			<point x="46" y="150" type="curve" smooth="yes"/>
			<point x="46" y="45"/>
			<point x="98" y="-12"/>
		</contour>
		<contour>
			<point x="178" y="14" type="curve" smooth="yes"/>
			<point x="114" y="14"/>
			<point x="74" y="61"/>
			<point x="74" y="156" type="curve" smooth="yes"/>
			<point x="74" y="309"/>
			<point x="178" y="464"/>
			<point x="294" y="464" type="curve" smooth="yes"/>
			<point x="338" y="464"/>
			<point x="373" y="437"/>
			<point x="410" y="372" type="curve"/>
			<point x="358" y="122" type="line"/>
			<point x="299" y="56"/>
			<point x="241" y="14"/>
		</contour>
		<contour>
			<point x="410" y="0" type="line"/>
			<point x="698" y="0" type="line"/>
			<point x="704" y="26" type="line"/>
			<point x="450" y="26" type="line"/>
			<point x="784" y="460" type="line"/>
			<point x="786" y="478" type="line"/>
			<point x="446" y="478" type="line"/>
			<point x="440" y="452" type="line"/>
			<point x="746" y="452" type="line"/>
			<point x="412" y="18" type="line"/>
		</contour>
	</outline>
	<anchor name="aboveUC" x="490" y="732"/>
	<anchor name="belowLC" x="400" y="-22"/>
</glyph>
<glyph name="dzcurl" format="2">
	<unicode hex="02A5"/>
	<advance width="786"/>
	<outline>
		<contour>
			<point x="176" y="-12" type="curve" smooth="yes"/>
			<point x="240" y="-12"/>
			<point x="297" y="27"/>
			<point x="346" y="78" type="curve"/>
			<point x="350" y="78" type="line"/>
			<point x="338" y="0" type="line"/>
			<point x="362" y="0" type="line"/>
			<point x="508" y="722" type="line"/>
			<point x="480" y="722" type="line"/>
			<point x="436" y="506" type="line"/>
			<point x="416" y="410" type="line"/>
			<point x="412" y="410" type="line"/>
			<point x="386" y="457"/>
			<point x="349" y="490"/>
			<point x="296" y="490" type="curve" smooth="yes"/>
			<point x="168" y="490"/>
			<point x="46" y="340"/>
			<point x="46" y="150" type="curve" smooth="yes"/>
			<point x="46" y="45"/>
			<point x="98" y="-12"/>
		</contour>
		<contour>
			<point x="178" y="14" type="curve" smooth="yes"/>
			<point x="114" y="14"/>
			<point x="74" y="61"/>
			<point x="74" y="156" type="curve" smooth="yes"/>
			<point x="74" y="309"/>
			<point x="178" y="464"/>
			<point x="294" y="464" type="curve" smooth="yes"/>
			<point x="338" y="464"/>
			<point x="373" y="437"/>
			<point x="410" y="372" type="curve"/>
			<point x="358" y="122" type="line"/>
			<point x="299" y="56"/>
			<point x="241" y="14"/>
		</contour>
		<contour>
			<point x="526" y="-80" type="line"/>
			<point x="588" y="79"/>
			<point x="660" y="152"/>
			<point x="714" y="152" type="curve" smooth="yes"/>
			<point x="738" y="152"/>
			<point x="752" y="138"/>
			<point x="752" y="114" type="curve" smooth="yes"/>
			<point x="752" y="80"/>
			<point x="714" y="26"/>
			<point x="628" y="26" type="curve" smooth="yes"/>
			<point x="572" y="26"/>
			<point x="511" y="26"/>
			<point x="450" y="26" type="curve"/>
			<point x="784" y="460" type="line"/>
			<point x="786" y="478" type="line"/>
			<point x="446" y="478" type="line"/>
			<point x="440" y="452" type="line"/>
			<point x="746" y="452" type="line"/>
			<point x="412" y="18" type="line"/>
			<point x="410" y="0" type="line"/>
			<point x="489" y="0"/>
			<point x="558" y="0"/>
			<point x="620" y="0" type="curve" smooth="yes"/>
			<point x="734" y="0"/>
			<point x="780" y="70"/>
			<point x="780" y="120" type="curve" smooth="yes"/>
			<point x="780" y="158"/>
			<point x="750" y="178"/>
			<point x="716" y="178" type="curve" smooth="yes"/>
			<point x="645" y="178"/>
			<point x="569" y="96"/>
			<point x="498" y="-74" type="curve"/>
		</contour>
	</outline>
	<anchor name="aboveUC" x="490" y="732"/>
	<anchor name="belowLC" x="400" y="-22"/>
</glyph>
<glyph name="r.sups" format="2">
	<unicode hex="02B3"/>
	<advance width="200"/>
	<outline>
		<contour>
			<point x="94" y="410" type="line"/>
			<point x="120" y="410" type="line"/>
			<point x="164" y="628" type="line"/>
			<point x="196" y="682"/>
			<point x="228" y="706"/>
			<point x="260" y="706" type="curve" smooth="yes"/>
			<point x="266" y="706"/>
			<point x="270" y="706"/>
			<point x="278" y="702" type="curve"/>
			<point x="288" y="730" type="line"/>
			<point x="278" y="734"/>
			<point x="274" y="734"/>
			<point x="268" y="734" type="curve" smooth="yes"/>
			<point x="230" y="734"/>
			<point x="200" y="712"/>
			<point x="174" y="676" type="curve"/>
			<point x="170" y="676" type="line"/>
			<point x="178" y="726" type="line"/>
			<point x="156" y="726" type="line"/>
		</contour>
	</outline>
</glyph>
<glyph name="ringhalfrightmod" format="2">
	<unicode hex="02BE"/>
	<advance width="210"/>
	<outline>
		<contour>
			<point x="78" y="502" type="line"/>
			<point x="188" y="498"/>
			<point x="242" y="568"/>
			<point x="242" y="636" type="curve" smooth="yes"/>
			<point x="242" y="696"/>
			<point x="194" y="734"/>
			<point x="126" y="730" type="curve"/>
			<point x="120" y="708" type="line"/>
			<point x="184" y="708"/>
			<point x="216" y="678"/>
			<point x="216" y="632" type="curve" smooth="yes"/>
			<point x="216" y="580"/>
			<point x="172" y="524"/>
			<point x="84" y="524" type="curve"/>
		</contour>
	</outline>
</glyph>
<glyph name="hungarumlautcmb" format="2">
	<unicode hex="030B"/>
	<outline>
		<contour>
			<point x="10" y="570" type="line"/>
			<point x="36" y="570" type="line"/>
			<point x="160" y="716" type="line"/>
			<point x="158" y="720" type="line"/>
			<point x="126" y="720" type="line"/>
		</contour>
		<contour>
			<point x="160" y="570" type="line"/>
			<point x="186" y="570" type="line"/>
			<point x="310" y="716" type="line"/>
			<point x="308" y="720" type="line"/>
			<point x="276" y="720" type="line"/>
		</contour>
	</outline>
	<anchor name="_aboveLC" x="100" y="502"/>
</glyph>
<glyph name="caroncmb" format="2">
	<unicode hex="030C"/>
	<outline>
		<contour>
			<point x="100" y="570" type="line"/>
			<point x="120" y="570" type="line"/>
			<point x="280" y="724" type="line"/>
			<point x="250" y="724" type="line"/>
			<point x="116" y="604" type="line"/>
			<point x="112" y="604" type="line"/>
			<point x="26" y="724" type="line"/>
			<point x="0" y="724" type="line"/>
		</contour>
	</outline>
	<anchor name="_aboveLC" x="100" y="502"/>
	<anchor name="aboveLC" x="130" y="682"/>
</glyph>
<glyph name="plusbelowcmb" format="2">
	<unicode hex="031F"/>
	<outline>
		<contour>
			<point x="-61" y="-242" type="line"/>
			<point x="-33" y="-242" type="line"/>
			<point x="-18" y="-166" type="line"/>
			<point x="54" y="-166" type="line"/>
			<point x="59" y="-138" type="line"/>
			<point x="-13" y="-138" type="line"/>
			<point x="2" y="-62" type="line"/>
			<point x="-26" y="-62" type="line"/>
			<point x="-41" y="-138" type="line"/>
			<point x="-113" y="-138" type="line"/>
			<point x="-118" y="-166" type="line"/>
			<point x="-46" y="-166" type="line"/>
		</contour>
	</outline>
	<anchor name="_belowLC" x="0" y="-22"/>
</glyph>
<glyph name="seagullbelowcmb" format="2">
	<unicode hex="033C"/>
	<outline>
		<contour>
			<point x="-170" y="-224" type="line"/>
			<point x="-151" y="-131"/>
			<point x="-124" y="-108"/>
			<point x="-90" y="-108" type="curve" smooth="yes"/>
			<point x="-62" y="-108"/>
			<point x="-48" y="-126"/>
			<point x="-48" y="-164" type="curve" smooth="yes"/>
			<point x="-48" y="-178"/>
			<point x="-50" y="-196"/>
			<point x="-58" y="-224" type="curve"/>
			<point x="-30" y="-224" type="line"/>
			<point x="-16" y="-142"/>
			<point x="12" y="-108"/>
			<point x="50" y="-108" type="curve" smooth="yes"/>
			<point x="74" y="-108"/>
			<point x="90" y="-120"/>
			<point x="90" y="-163" type="curve" smooth="yes"/>
			<point x="90" y="-179"/>
			<point x="87" y="-199"/>
			<point x="82" y="-224" type="curve"/>
			<point x="108" y="-222" type="line"/>
			<point x="113" y="-198"/>
			<point x="116" y="-178"/>
			<point x="116" y="-161" type="curve" smooth="yes"/>
			<point x="116" y="-106"/>
			<point x="92" y="-84"/>
			<point x="54" y="-84" type="curve" smooth="yes"/>
			<point x="22" y="-84"/>
			<point x="-10" y="-100"/>
			<point x="-26" y="-145" type="curve"/>
			<point x="-28" y="-145" type="line"/>
			<point x="-28" y="-102"/>
			<point x="-52" y="-84"/>
			<point x="-86" y="-84" type="curve" smooth="yes"/>
			<point x="-136" y="-84"/>
			<point x="-178" y="-121"/>
			<point x="-196" y="-222" type="curve"/>
		</contour>
	</outline>
	<anchor name="_belowLC" x="0" y="-22"/>
</glyph>
<glyph name="Psi" format="2">
	<unicode hex="03A8"/>
	<advance width="624"/>
	<outline>
		<contour>
			<point x="244" y="0" type="line"/>
			<point x="274" y="0" type="line"/>
			<point x="406" y="660" type="line"/>
			<point x="376" y="660" type="line"/>
		</contour>
		<contour>
			<point x="301" y="268" type="curve" smooth="yes"/>
			<point x="304" y="268" type="line" smooth="yes"/>
			<point x="472" y="268"/>
			<point x="573" y="348"/>
			<point x="604" y="498" type="curve" smooth="yes"/>
			<point x="638" y="660" type="line"/>
			<point x="608" y="660" type="line"/>
			<point x="574" y="498" type="line" smooth="yes"/>
			<point x="548" y="372"/>
			<point x="464" y="294"/>
			<point x="309" y="294" type="curve" smooth="yes"/>
			<point x="306" y="294" type="line" smooth="yes"/>
			<point x="218" y="294"/>
			<point x="140" y="341"/>
			<point x="140" y="436" type="curve" smooth="yes"/>
			<point x="140" y="458"/>
			<point x="140" y="480"/>
			<point x="146" y="508" type="curve" smooth="yes"/>
			<point x="178" y="660" type="line"/>
			<point x="148" y="660" type="line"/>
			<point x="116" y="508" type="line" smooth="yes"/>
			<point x="110" y="480"/>
			<point x="110" y="455"/>
			<point x="110" y="432" type="curve" smooth="yes"/>
			<point x="110" y="325"/>
			<point x="204" y="268"/>
		</contour>
	</outline>
</glyph>
<glyph name="beta" format="2">
	<unicode hex="03B2"/>
	<advance width="508"/>
	<outline>
		<contour>
			<point x="8" y="-180" type="line"/>
			<point x="36" y="-180" type="line"/>
			<point x="53" y="-92"/>
			<point x="69" y="-14"/>
			<point x="84" y="72" type="curve"/>
			<point x="116" y="18"/>
			<point x="190" y="-12"/>
			<point x="248" y="-12" type="curve" smooth="yes"/>
			<point x="372" y="-12"/>
			<point x="464" y="80"/>
			<point x="464" y="204" type="curve" smooth="yes"/>
			<point x="464" y="306"/>
			<point x="404" y="366"/>
			<point x="316" y="378" type="curve"/>
			<point x="316" y="382" type="line"/>
			<point x="418" y="427"/>
			<point x="474" y="503"/>
			<point x="474" y="590" type="curve" smooth="yes"/>
			<point x="474" y="686"/>
			<point x="412" y="734"/>
			<point x="338" y="734" type="curve" smooth="yes"/>
			<point x="236" y="734"/>
			<point x="172" y="642"/>
			<point x="146" y="512" type="curve" smooth="yes"/>
		</contour>
		<contour>
			<point x="250" y="14" type="curve" smooth="yes"/>
			<point x="200" y="14"/>
			<point x="126" y="38"/>
			<point x="92" y="104" type="curve"/>
			<point x="119" y="244"/>
			<point x="145" y="374"/>
			<point x="172" y="502" type="curve" smooth="yes"/>
			<point x="202" y="646"/>
			<point x="260" y="708"/>
			<point x="336" y="708" type="curve" smooth="yes"/>
			<point x="400" y="708"/>
			<point x="446" y="670"/>
			<point x="446" y="584" type="curve" smooth="yes"/>
			<point x="446" y="510"/>
			<point x="382" y="414"/>
			<point x="238" y="380" type="curve"/>
			<point x="242" y="352" type="line"/>
			<point x="259" y="355"/>
			<point x="273" y="356"/>
			<point x="288" y="356" type="curve" smooth="yes"/>
			<point x="374" y="356"/>
			<point x="436" y="297"/>
			<point x="436" y="198" type="curve" smooth="yes"/>
			<point x="436" y="95"/>
			<point x="356" y="14"/>
		</contour>
	</outline>
	<anchor name="aboveUC" x="350" y="732"/>
	<anchor name="belowLC" x="30" y="-182"/>
</glyph>
<glyph name="zeta" format="2">
	<unicode hex="03B6"/>
	<advance width="372"/>
	<outline>
		<contour>
			<point x="252" y="-186" type="line"/>
			<point x="282" y="-152"/>
			<point x="318" y="-110"/>
			<point x="318" y="-66" type="curve" smooth="yes"/>
			<point x="318" y="-22"/>
			<point x="280" y="-2"/>
			<point x="208" y="18" type="curve" smooth="yes"/>
			<point x="136" y="38"/>
			<point x="82" y="74"/>
			<point x="82" y="170" type="curve" smooth="yes"/>
			<point x="82" y="366"/>
			<point x="285" y="570"/>
			<point x="463" y="695" type="curve"/>
			<point x="468" y="720" type="line"/>
			<point x="172" y="734" type="line"/>
			<point x="166" y="706" type="line"/>
			<point x="234" y="706"/>
			<point x="350" y="702"/>
			<point x="428" y="698" type="curve"/>
			<point x="428" y="694" type="line"/>
			<point x="263" y="580"/>
			<point x="54" y="378"/>
			<point x="54" y="164" type="curve" smooth="yes"/>
			<point x="54" y="66"/>
			<point x="106" y="20"/>
			<point x="188" y="-4" type="curve" smooth="yes"/>
			<point x="270" y="-28"/>
			<point x="290" y="-46"/>
			<point x="290" y="-70" type="curve" smooth="yes"/>
			<point x="290" y="-104"/>
			<point x="263" y="-137"/>
			<point x="230" y="-172" type="curve"/>
		</contour>
	</outline>
	<anchor name="aboveUC" x="320" y="732"/>
	<anchor name="belowLC" x="140" y="-182"/>
</glyph>
<glyph name="kappa" format="2">
	<unicode hex="03BA"/>
	<advance width="426"/>
	<outline>
		<contour>
			<point x="44" y="0" type="line"/>
			<point x="70" y="0" type="line"/>
			<point x="76" y="32" type="line" smooth="yes"/>
			<point x="86" y="86"/>
			<point x="106" y="134"/>
			<point x="134" y="172" type="curve" smooth="yes"/>
			<point x="232" y="307"/>
			<point x="342" y="412"/>
			<point x="446" y="454" type="curve"/>
			<point x="438" y="480" type="line"/>
			<point x="332" y="430"/>
			<point x="203" y="316"/>
			<point x="110" y="176" type="curve"/>
			<point x="106" y="176" type="line"/>
			<point x="146" y="374" type="line" smooth="yes"/>
			<point x="154" y="414"/>
			<point x="160" y="456"/>
			<point x="160" y="478" type="curve"/>
			<point x="132" y="478" type="line"/>
			<point x="132" y="442"/>
			<point x="124" y="398"/>
			<point x="116" y="360" type="curve" smooth="yes"/>
		</contour>
		<contour>
			<point x="362" y="-6" type="curve"/>
			<point x="390" y="0" type="line"/>
			<point x="346" y="58"/>
			<point x="278" y="204"/>
			<point x="264" y="326" type="curve"/>
			<point x="242" y="307" type="line"/>
			<point x="258" y="192"/>
			<point x="322" y="52"/>
		</contour>
	</outline>
	<anchor name="aboveLC" x="280" y="502"/>
	<anchor name="belowLC" x="220" y="-22"/>
</glyph>
<glyph name="phi" format="2">
	<unicode hex="03D5"/>
	<unicode hex="03C6"/>
	<advance width="586"/>
	<outline>
		<contour>
			<point x="182" y="-180" type="line"/>
			<point x="212" y="-180" type="line"/>
			<point x="242" y="-26"/>
			<point x="286" y="146"/>
			<point x="324" y="304" type="curve" smooth="yes"/>
			<point x="353" y="427"/>
			<point x="395" y="452"/>
			<point x="438" y="452" type="curve" smooth="yes"/>
			<point x="487" y="452"/>
			<point x="522" y="405"/>
			<point x="522" y="312" type="curve" smooth="yes"/>
			<point x="522" y="148"/>
			<point x="418" y="14"/>
			<point x="250" y="12" type="curve"/>
			<point x="244" y="-12" type="line"/>
			<point x="432" y="-10"/>
			<point x="550" y="130"/>
			<point x="550" y="318" type="curve" smooth="yes"/>
			<point x="550" y="421"/>
			<point x="502" y="478"/>
			<point x="442" y="478" type="curve" smooth="yes"/>
			<point x="384" y="478"/>
			<point x="329" y="441"/>
			<point x="300" y="318" type="curve" smooth="yes"/>
		</contour>
		<contour>
			<point x="242" y="-12" type="curve"/>
			<point x="248" y="12" type="line"/>
			<point x="163" y="12"/>
			<point x="74" y="64"/>
			<point x="74" y="188" type="curve" smooth="yes"/>
			<point x="74" y="338"/>
			<point x="179" y="451"/>
			<point x="292" y="486" type="curve"/>
			<point x="286" y="508" type="line"/>
			<point x="167" y="476"/>
			<point x="46" y="356"/>
			<point x="46" y="182" type="curve" smooth="yes"/>
			<point x="46" y="50"/>
			<point x="149" y="-12"/>
		</contour>
	</outline>
	<anchor name="aboveLC" x="350" y="502"/>
	<anchor name="belowLC" x="200" y="-182"/>
</glyph>
<glyph name="Sho" format="2">
	<unicode hex="03F7"/>
	<advance width="468"/>
	<outline>
		<contour>
			<point x="36" y="-22" type="line"/>
			<point x="66" y="-22" type="line"/>
			<point x="90" y="98" type="line"/>
			<point x="108" y="98" type="line" smooth="yes"/>
			<point x="306" y="98"/>
			<point x="452" y="196"/>
			<point x="452" y="370" type="curve" smooth="yes"/>
			<point x="452" y="484"/>
			<point x="354" y="562"/>
			<point x="210" y="562" type="curve" smooth="yes"/>
			<point x="182" y="562" type="line"/>
			<point x="206" y="682" type="line"/>
			<point x="176" y="682" type="line"/>
		</contour>
		<contour>
			<point x="94" y="124" type="line"/>
			<point x="176" y="536" type="line"/>
			<point x="208" y="536" type="line" smooth="yes"/>
			<point x="340" y="536"/>
			<point x="422" y="464"/>
			<point x="422" y="364" type="curve" smooth="yes"/>
			<point x="422" y="214"/>
			<point x="292" y="124"/>
			<point x="110" y="124" type="curve" smooth="yes"/>
		</contour>
	</outline>
</glyph>
<glyph name="izhitsa" format="2">
	<unicode hex="0475"/>
	<advance width="413"/>
	<outline>
		<contour>
			<point x="136" y="0" type="line"/>
			<point x="174" y="0" type="line"/>
			<point x="370" y="376" type="line" smooth="yes"/>
			<point x="401" y="436"/>
			<point x="422" y="458"/>
			<point x="446" y="458" type="curve" smooth="yes"/>
			<point x="454" y="458"/>
			<point x="460" y="456"/>
			<point x="464" y="454" type="curve"/>
			<point x="476" y="480" type="line"/>
			<point x="470" y="484"/>
			<point x="460" y="486"/>
			<point x="454" y="486" type="curve" smooth="yes"/>
			<point x="410" y="486"/>
			<point x="384" y="458"/>
			<point x="344" y="380" type="curve" smooth="yes"/>
			<point x="233" y="166" type="line" smooth="yes"/>
			<point x="209" y="120"/>
			<point x="184" y="68"/>
			<point x="162" y="26" type="curve"/>
			<point x="158" y="26" type="line"/>
			<point x="150" y="70"/>
			<point x="144" y="120"/>
			<point x="136" y="166" type="curve" smooth="yes"/>
			<point x="86" y="478" type="line"/>
			<point x="58" y="478" type="line"/>
		</contour>
	</outline>
	<anchor name="aboveLC" x="250" y="502"/>
</glyph>
<glyph name="Zhedescender" format="2">
	<unicode hex="0496"/>
	<advance width="790"/>
	<outline>
		<contour>
			<point x="654" y="-188" type="line"/>
			<point x="678" y="-188" type="line"/>
			<point x="724" y="10" type="line"/>
			<point x="726" y="26" type="line"/>
			<point x="683" y="26" type="line"/>
			<point x="678" y="0" type="line"/>
			<point x="692" y="0" type="line"/>
		</contour>
		<component base="Zhe"/>
	</outline>
</glyph>
<glyph name="Shha" format="2">
	<unicode hex="04BA"/>
	<advance width="540"/>
	<outline>
		<contour>
			<point x="40" y="0" type="line"/>
			<point x="70" y="0" type="line"/>
			<point x="140" y="354" type="line"/>
			<point x="168" y="362"/>
			<point x="213" y="368"/>
			<point x="254" y="368" type="curve" smooth="yes"/>
			<point x="360" y="368"/>
			<point x="438" y="322"/>
			<point x="438" y="228" type="curve" smooth="yes"/>
			<point x="438" y="210"/>
			<point x="436" y="194"/>
			<point x="434" y="182" type="curve" smooth="yes"/>
			<point x="398" y="0" type="line"/>
			<point x="428" y="0" type="line"/>
			<point x="463" y="182" type="line"/>
			<point x="467" y="203"/>
			<point x="468" y="216"/>
			<point x="468" y="234" type="curve" smooth="yes"/>
			<point x="468" y="338"/>
			<point x="380" y="396"/>
			<point x="256" y="396" type="curve" smooth="yes"/>
			<point x="218" y="396"/>
			<point x="172" y="388"/>
			<point x="146" y="382" type="curve"/>
			<point x="202" y="660" type="line"/>
			<point x="172" y="660" type="line"/>
		</contour>
	</outline>
</glyph>
<glyph name="D.sups" format="2">
	<unicode hex="1D30"/>
	<advance width="380"/>
	<outline>
		<contour>
			<point x="94" y="410" type="line"/>
			<point x="196" y="410" type="line" smooth="yes"/>
			<point x="350" y="410"/>
			<point x="430" y="530"/>
			<point x="430" y="678" type="curve" smooth="yes"/>
			<point x="430" y="774"/>
			<point x="370" y="842"/>
			<point x="248" y="842" type="curve" smooth="yes"/>
			<point x="180" y="842" type="line"/>
		</contour>
		<contour>
			<point x="126" y="434" type="line"/>
			<point x="202" y="818" type="line"/>
			<point x="246" y="818" type="line" smooth="yes"/>
			<point x="350" y="818"/>
			<point x="402" y="760"/>
			<point x="402" y="676" type="curve" smooth="yes"/>
			<point x="402" y="548"/>
			<point x="328" y="434"/>
			<point x="198" y="434" type="curve" smooth="yes"/>
		</contour>
	</outline>
</glyph>
<glyph name="O.sups" format="2">
	<unicode hex="1D3C"/>
	<advance width="410"/>
	<outline>
		<contour>
			<point x="240" y="402" type="curve" smooth="yes"/>
			<point x="355" y="402"/>
			<point x="460" y="546"/>
			<point x="460" y="690" type="curve" smooth="yes"/>
			<point x="460" y="790"/>
			<point x="408" y="850"/>
			<point x="328" y="850" type="curve" smooth="yes"/>
			<point x="213" y="850"/>
			<point x="108" y="706"/>
			<point x="108" y="562" type="curve" smooth="yes"/>
			<point x="108" y="462"/>
			<point x="160" y="402"/>
		</contour>
		<contour>
			<point x="244" y="428" type="curve" smooth="yes"/>
			<point x="172" y="428"/>
			<point x="136" y="480"/>
			<point x="136" y="565" type="curve" smooth="yes"/>
			<point x="136" y="694"/>
			<point x="228" y="824"/>
			<point x="324" y="824" type="curve" smooth="yes"/>
			<point x="396" y="824"/>
			<point x="432" y="772"/>
			<point x="432" y="687" type="curve" smooth="yes"/>
			<point x="432" y="558"/>
			<point x="340" y="428"/>
		</contour>
	</outline>
</glyph>
<glyph name="d.sups" format="2">
	<unicode hex="1D48"/>
	<advance width="352"/>
	<outline>
		<contour>
			<point x="186" y="402" type="curve" smooth="yes"/>
			<point x="232" y="402"/>
			<point x="272" y="426"/>
			<point x="306" y="462" type="curve"/>
			<point x="310" y="462" type="line"/>
			<point x="300" y="410" type="line"/>
			<point x="322" y="410" type="line"/>
			<point x="414" y="878" type="line"/>
			<point x="388" y="878" type="line"/>
			<point x="362" y="748" type="line"/>
			<point x="352" y="684" type="line"/>
			<point x="348" y="684" type="line"/>
			<point x="330" y="720"/>
			<point x="300" y="734"/>
			<point x="268" y="734" type="curve" smooth="yes"/>
			<point x="178" y="734"/>
			<point x="92" y="638"/>
			<point x="92" y="518" type="curve" smooth="yes"/>
			<point x="92" y="442"/>
			<point x="130" y="402"/>
		</contour>
		<contour>
			<point x="188" y="426" type="curve" smooth="yes"/>
			<point x="148" y="426"/>
			<point x="118" y="456"/>
			<point x="118" y="522" type="curve" smooth="yes"/>
			<point x="118" y="616"/>
			<point x="192" y="710"/>
			<point x="266" y="710" type="curve" smooth="yes"/>
			<point x="294" y="710"/>
			<point x="320" y="696"/>
			<point x="344" y="652" type="curve"/>
			<point x="314" y="500" type="line"/>
			<point x="276" y="458"/>
			<point x="228" y="426"/>
		</contour>
	</outline>
</glyph>
<glyph name="eopen.sups" format="2">
	<unicode hex="1D4B"/>
	<advance width="296"/>
	<outline>
		<contour>
			<point x="194" y="402" type="curve" smooth="yes"/>
			<point x="240" y="402"/>
			<point x="274" y="412"/>
			<point x="314" y="442" type="curve"/>
			<point x="302" y="458" type="line"/>
			<point x="262" y="432"/>
			<point x="234" y="426"/>
			<point x="196" y="426" type="curve" smooth="yes"/>
			<point x="146" y="426"/>
			<point x="114" y="448"/>
			<point x="114" y="484" type="curve" smooth="yes"/>
			<point x="114" y="532"/>
			<point x="162" y="566"/>
			<point x="238" y="566" type="curve" smooth="yes"/>
			<point x="276" y="566" type="line"/>
			<point x="282" y="590" type="line"/>
			<point x="250" y="590" type="line" smooth="yes"/>
			<point x="190" y="590"/>
			<point x="166" y="614"/>
			<point x="166" y="648" type="curve" smooth="yes"/>
			<point x="166" y="686"/>
			<point x="202" y="710"/>
			<point x="256" y="710" type="curve" smooth="yes"/>
			<point x="289" y="710"/>
			<point x="314" y="702"/>
			<point x="336" y="684" type="curve"/>
			<point x="350" y="700" type="line"/>
			<point x="326" y="720"/>
			<point x="297" y="734"/>
			<point x="258" y="734" type="curve" smooth="yes"/>
			<point x="186" y="734"/>
			<point x="138" y="700"/>
			<point x="138" y="644" type="curve" smooth="yes"/>
			<point x="138" y="612"/>
			<point x="164" y="592"/>
			<point x="184" y="584" type="curve"/>
			<point x="184" y="580" type="line"/>
			<point x="140" y="572"/>
			<point x="86" y="542"/>
			<point x="86" y="480" type="curve" smooth="yes"/>
			<point x="86" y="432"/>
			<point x="126" y="402"/>
		</contour>
	</outline>
</glyph>
<glyph name="t.sups" format="2">
	<unicode hex="1D57"/>
	<advance width="200"/>
	<outline>
		<contour>
			<point x="178" y="402" type="curve" smooth="yes"/>
			<point x="190" y="402"/>
			<point x="212" y="408"/>
			<point x="226" y="414" type="curve"/>
			<point x="220" y="436" type="line"/>
			<point x="210" y="432"/>
			<point x="200" y="426"/>
			<point x="180" y="426" type="curve" smooth="yes"/>
			<point x="152" y="426"/>
			<point x="138" y="444"/>
			<point x="138" y="474" type="curve" smooth="yes"/>
			<point x="138" y="480"/>
			<point x="140" y="492"/>
			<point x="142" y="502" type="curve" smooth="yes"/>
			<point x="182" y="702" type="line"/>
			<point x="274" y="702" type="line"/>
			<point x="278" y="726" type="line"/>
			<point x="186" y="726" type="line"/>
			<point x="210" y="838" type="line"/>
			<point x="188" y="838" type="line"/>
			<point x="160" y="726" type="line"/>
			<point x="110" y="724" type="line"/>
			<point x="106" y="702" type="line"/>
			<point x="156" y="702" type="line"/>
			<point x="116" y="502" type="line" smooth="yes"/>
			<point x="114" y="490"/>
			<point x="112" y="480"/>
			<point x="112" y="470" type="curve" smooth="yes"/>
			<point x="112" y="434"/>
			<point x="126" y="402"/>
		</contour>
	</outline>
</glyph>
<glyph name="f.sups" format="2">
	<unicode hex="1DA0"/>
	<advance width="172"/>
	<outline>
		<contour>
			<point x="94" y="410" type="line"/>
			<point x="120" y="410" type="line"/>
			<point x="198" y="802" type="line" smooth="yes"/>
			<point x="206" y="840"/>
			<point x="230" y="868"/>
			<point x="260" y="868" type="curve" smooth="yes"/>
			<point x="278" y="868"/>
			<point x="288" y="864"/>
			<point x="300" y="856" type="curve"/>
			<point x="312" y="876" type="line"/>
			<point x="294" y="888"/>
			<point x="280" y="892"/>
			<point x="262" y="892" type="curve" smooth="yes"/>
			<point x="220" y="892"/>
			<point x="184" y="862"/>
			<point x="172" y="798" type="curve" smooth="yes"/>
		</contour>
		<contour>
			<point x="110" y="702" type="line"/>
			<point x="254" y="702" type="line"/>
			<point x="258" y="726" type="line"/>
			<point x="158" y="726" type="line"/>
			<point x="114" y="724" type="line"/>
		</contour>
	</outline>
</glyph>
<glyph name="figuredash" format="2">
	<unicode hex="2012"/>
	<advance width="456"/>
	<outline>
		<contour>
			<point x="36" y="238" type="line"/>
			<point x="412" y="238" type="line"/>
			<point x="420" y="264" type="line"/>
			<point x="42" y="264" type="line"/>
		</contour>
	</outline>
</glyph>
<glyph name="daggerdbl" format="2">
	<unicode hex="2021"/>
	<advance width="392"/>
	<outline>
		<contour>
			<point x="116" y="-80" type="line"/>
			<point x="146" y="-80" type="line"/>
			<point x="176" y="84" type="line"/>
			<point x="298" y="82" type="line"/>
			<point x="304" y="112" type="line"/>
			<point x="180" y="110" type="line"/>
			<point x="224" y="316" type="line"/>
			<point x="264" y="522" type="line"/>
			<point x="386" y="520" type="line"/>
			<point x="392" y="550" type="line"/>
			<point x="270" y="548" type="line"/>
			<point x="302" y="712" type="line"/>
			<point x="272" y="712" type="line"/>
			<point x="242" y="548" type="line"/>
			<point x="120" y="550" type="line"/>
			<point x="114" y="520" type="line"/>
			<point x="238" y="522" type="line"/>
			<point x="194" y="316" type="line"/>
			<point x="154" y="110" type="line"/>
			<point x="32" y="112" type="line"/>
			<point x="26" y="82" type="line"/>
			<point x="148" y="84" type="line"/>
		</contour>
	</outline>
</glyph>
<glyph name="guilsinglright" format="2">
	<unicode hex="203A"/>
	<advance width="236"/>
	<outline>
		<contour>
			<point x="36" y="74" type="line"/>
			<point x="194" y="230" type="line"/>
			<point x="200" y="262" type="line"/>
			<point x="98" y="428" type="line"/>
			<point x="78" y="416" type="line"/>
			<point x="168" y="250" type="line"/>
			<point x="20" y="90" type="line"/>
		</contour>
	</outline>
</glyph>
<glyph name="arrowdblright" format="2">
	<unicode hex="21D2"/>
	<advance width="594"/>
	<outline>
		<contour>
			<point x="307" y="-14" type="line"/>
			<point x="575" y="250" type="line"/>
			<point x="575" y="254" type="line"/>
			<point x="307" y="518" type="line"/>
			<point x="288" y="499" type="line"/>
			<point x="543" y="254" type="line"/>
			<point x="543" y="250" type="line"/>
			<point x="288" y="5" type="line"/>
		</contour>
		<contour>
			<point x="25" y="138" type="line"/>
			<point x="459" y="138" type="line"/>
			<point x="459" y="165" type="line"/>
			<point x="25" y="165" type="line"/>
		</contour>
		<contour>
			<point x="25" y="339" type="line"/>
			<point x="459" y="339" type="line"/>
			<point x="459" y="366" type="line"/>
			<point x="25" y="366" type="line"/>
		</contour>
	</outline>
</glyph>
<glyph name="product" format="2">
	<unicode hex="220F"/>
	<advance width="618"/>
	<outline>
		<contour>
			<point x="104" y="-120" type="line"/>
			<point x="132" y="-120" type="line"/>
			<point x="132" y="614" type="line"/>
			<point x="506" y="614" type="line"/>
			<point x="506" y="-120" type="line"/>
			<point x="534" y="-120" type="line"/>
			<point x="534" y="640" type="line"/>
			<point x="104" y="640" type="line"/>
		</contour>
	</outline>
</glyph>
<glyph name="invbullet" format="2">
	<unicode hex="25D8"/>
	<advance width="266"/>
	<outline>
		<contour>
			<point x="22" y="152" type="line"/>
			<point x="244" y="152" type="line"/>
			<point x="244" y="372" type="line"/>
			<point x="22" y="372" type="line"/>
		</contour>
		<contour>
			<point x="133" y="164" type="curve" smooth="yes"/>
			<point x="75" y="164"/>
			<point x="34" y="205"/>
			<point x="34" y="262" type="curve" smooth="yes"/>
			<point x="34" y="319"/>
			<point x="75" y="360"/>
			<point x="133" y="360" type="curve" smooth="yes"/>
			<point x="191" y="360"/>
			<point x="232" y="319"/>
			<point x="232" y="262" type="curve" smooth="yes"/>
			<point x="232" y="205"/>
			<point x="191" y="164"/>
		</contour>
	</outline>
</glyph>
<glyph name="checkedbox" format="2">
	<unicode hex="2611"/>
	<advance width="760"/>
	<outline>
		<contour>
			<point x="252" y="100" type="curve"/>
			<point x="292" y="104" type="line"/>
			<point x="400" y="350"/>
			<point x="608" y="594"/>
			<point x="801" y="755" type="curve"/>
			<point x="782" y="778" type="line"/>
			<point x="590" y="614"/>
			<point x="378" y="360"/>
			<point x="277" y="132" type="curve"/>
			<point x="273" y="132" type="line"/>
			<point x="264" y="222"/>
			<point x="234" y="320"/>
			<point x="202" y="400" type="curve"/>
			<point x="176" y="386" type="line"/>
			<point x="210" y="306"/>
			<point x="239" y="203"/>
		</contour>
		<component base="checkbox"/>
	</outline>
</glyph>
<glyph name="bracketleftwhite" format="2">
	<unicode hex="27E6"/>
	<advance width="322"/>
	<outline>
		<contour>
			<point x="18" y="-152" type="line"/>
			<point x="222" y="-152" type="line"/>
			<point x="228" y="-130" type="line"/>
			<point x="106" y="-130" type="line"/>
			<point x="268" y="686" type="line"/>
			<point x="392" y="686" type="line"/>
			<point x="394" y="708" type="line"/>
			<point x="190" y="708" type="line"/>
		</contour>
		<contour>
			<point x="46" y="-130" type="line"/>
			<point x="208" y="686" type="line"/>
			<point x="246" y="686" type="line"/>
			<point x="82" y="-130" type="line"/>
		</contour>
	</outline>
</glyph>
<glyph name="Lbardbl" format="2">
	<unicode hex="2C60"/>
	<advance width="452"/>
	<outline>
		<contour>
			<point x="40" y="282" type="line"/>
			<point x="338" y="282" type="line"/>
			<point x="344" y="308" type="line"/>
			<point x="124" y="308" type="line"/>
			<point x="46" y="304" type="line"/>
		</contour>
		<contour>
			<point x="60" y="392" type="line"/>
			<point x="360" y="392" type="line"/>
			<point x="366" y="418" type="line"/>
			<point x="144" y="418" type="line"/>
			<point x="66" y="414" type="line"/>
		</contour>
		<component base="L" xOffset="20"/>
	</outline>
	<anchor name="aboveUC" x="220" y="682"/>
	<anchor name="belowLC" x="240" y="-22"/>
</glyph>
<glyph name="ainEgypt" format="2">
	<unicode hex="A725"/>
	<advance width="238"/>
	<outline>
		<contour>
			<point x="174" y="248" type="curve"/>
			<point x="182" y="272" type="line"/>
			<point x="134" y="280"/>
			<point x="106" y="320"/>
			<point x="106" y="366" type="curve" smooth="yes"/>
			<point x="106" y="412"/>
			<point x="130" y="438"/>
			<point x="160" y="440" type="curve"/>
			<point x="152" y="440" type="line"/>
			<point x="152" y="410"/>
			<point x="166" y="398"/>
			<point x="188" y="398" type="curve" smooth="yes"/>
			<point x="210" y="398"/>
			<point x="230" y="420"/>
			<point x="230" y="448" type="curve" smooth="yes"/>
			<point x="230" y="472"/>
			<point x="212" y="490"/>
			<point x="182" y="490" type="curve" smooth="yes"/>
			<point x="124" y="490"/>
			<point x="74" y="438"/>
			<point x="74" y="362" type="curve" smooth="yes"/>
			<point x="74" y="306"/>
			<point x="108" y="256"/>
		</contour>
	</outline>
</glyph>
<glyph name="Dinsular" format="2">
	<unicode hex="A779"/>
	<advance width="623"/>
	<outline>
		<contour>
			<point x="284" y="-12" type="curve" smooth="yes"/>
			<point x="480" y="-12"/>
			<point x="584" y="222"/>
			<point x="584" y="398" type="curve" smooth="yes"/>
			<point x="584" y="566"/>
			<point x="494" y="660"/>
			<point x="350" y="660" type="curve" smooth="yes"/>
			<point x="106" y="660" type="line"/>
			<point x="100" y="634" type="line"/>
			<point x="260" y="634" type="line"/>
			<point x="260" y="630" type="line"/>
			<point x="160" y="580"/>
			<point x="62" y="440"/>
			<point x="62" y="262" type="curve" smooth="yes"/>
			<point x="62" y="90"/>
			<point x="144" y="-12"/>
		</contour>
		<contour>
			<point x="286" y="14" type="curve" smooth="yes"/>
			<point x="160" y="14"/>
			<point x="92" y="106"/>
			<point x="92" y="266" type="curve" smooth="yes"/>
			<point x="92" y="431"/>
			<point x="210" y="632"/>
			<point x="356" y="632" type="curve" smooth="yes"/>
			<point x="482" y="632"/>
			<point x="554" y="549"/>
			<point x="554" y="394" type="curve" smooth="yes"/>
			<point x="554" y="238"/>
			<point x="464" y="14"/>
		</contour>
	</outline>
	<anchor name="aboveUC" x="380" y="682"/>
	<anchor name="belowLC" x="270" y="-22"/>
</glyph>
<glyph name="rinsular" format="2">
	<unicode hex="A783"/>
	<advance width="450"/>
	<outline>
		<contour>
			<point x="0" y="-222" type="line"/>
			<point x="28" y="-222" type="line"/>
			<point x="142" y="352" type="line"/>
			<point x="217" y="433"/>
			<point x="269" y="464"/>
			<point x="326" y="464" type="curve" smooth="yes"/>
			<point x="375" y="464"/>
			<point x="406" y="435"/>
			<point x="406" y="390" type="curve" smooth="yes"/>
			<point x="406" y="292"/>
			<point x="332" y="186"/>
			<point x="164" y="100" type="curve"/>
			<point x="173" y="12"/>
			<point x="242" y="-12"/>
			<point x="314" y="-12" type="curve" smooth="yes"/>
			<point x="338" y="-12"/>
			<point x="356" y="-8"/>
			<point x="370" y="-2" type="curve"/>
			<point x="362" y="22" type="line"/>
			<point x="350" y="18"/>
			<point x="334" y="14"/>
			<point x="316" y="14" type="curve" smooth="yes"/>
			<point x="256" y="14"/>
			<point x="200" y="38"/>
			<point x="192" y="86" type="curve"/>
			<point x="348" y="166"/>
			<point x="434" y="280"/>
			<point x="434" y="396" type="curve" smooth="yes"/>
			<point x="434" y="456"/>
			<point x="392" y="490"/>
			<point x="328" y="490" type="curve" smooth="yes"/>
			<point x="269" y="490"/>
			<point x="209" y="456"/>
			<point x="152" y="392" type="curve"/>
			<point x="150" y="392" type="line"/>
			<point x="164" y="478" type="line"/>
			<point x="140" y="478" type="line"/>
		</contour>
	</outline>
	<anchor name="aboveLC" x="320" y="502"/>
	<anchor name="belowLC" x="20" y="-222"/>
</glyph>
<glyph name="Tinsular" format="2">
	<unicode hex="A786"/>
	<advance width="492"/>
	<outline>
		<contour>
			<point x="238" y="-12" type="curve" smooth="yes"/>
			<point x="306" y="-12"/>
			<point x="354" y="15"/>
			<point x="406" y="62" type="curve"/>
			<point x="392" y="78" type="line"/>
			<point x="348" y="40"/>
			<point x="300" y="14"/>
			<point x="240" y="14" type="curve" smooth="yes"/>
			<point x="134" y="14"/>
			<point x="88" y="94"/>
			<point x="88" y="206" type="curve" smooth="yes"/>
			<point x="88" y="370"/>
			<point x="246" y="632"/>
			<point x="459" y="632" type="curve" smooth="yes"/>
			<point x="542" y="632" type="line"/>
			<point x="548" y="660" type="line"/>
			<point x="106" y="660" type="line"/>
			<point x="100" y="632" type="line"/>
			<point x="338" y="632" type="line"/>
			<point x="338" y="628" type="line"/>
			<point x="228" y="586"/>
			<point x="58" y="404"/>
			<point x="58" y="200" type="curve" smooth="yes"/>
			<point x="58" y="76"/>
			<point x="120" y="-12"/>
		</contour>
	</outline>
	<anchor name="aboveUC" x="330" y="682"/>
	<anchor name="belowLC" x="220" y="-22"/>
</glyph>
<glyph name="F.sups" format="2">
	<unicode hex="A7F3"/>
	<advance width="300"/>
	<outline>
		<contour>
			<point x="94" y="410" type="line"/>
			<point x="122" y="410" type="line"/>
			<point x="164" y="620" type="line"/>
			<point x="334" y="620" type="line"/>
			<point x="340" y="644" type="line"/>
			<point x="168" y="644" type="line"/>
			<point x="202" y="818" type="line"/>
			<point x="404" y="818" type="line"/>
			<point x="410" y="842" type="line"/>
			<point x="180" y="842" type="line"/>
		</contour>
	</outline>
</glyph>
<glyph name="deposeemark" format="2">
	<unicode hex="1F16B"/>
	<advance width="600"/>
	<outline>
		<contour>
			<point x="390" y="370" type="line"/>
			<point x="462" y="370" type="line" smooth="yes"/>
			<point x="569" y="370"/>
			<point x="634" y="456"/>
			<point x="634" y="554" type="curve" smooth="yes"/>
			<point x="634" y="638"/>
			<point x="590" y="676"/>
			<point x="520" y="676" type="curve" smooth="yes"/>
			<point x="452" y="676" type="line"/>
		</contour>
		<contour>
			<point x="424" y="396" type="line"/>
			<point x="474" y="650" type="line"/>
			<point x="516" y="650" type="line" smooth="yes"/>
			<point x="576" y="650"/>
			<point x="606" y="616"/>
			<point x="606" y="552" type="curve" smooth="yes"/>
			<point x="606" y="472"/>
			<point x="548" y="396"/>
			<point x="466" y="396" type="curve" smooth="yes"/>
		</contour>
		<contour>
			<point x="50" y="370" type="line"/>
			<point x="78" y="370" type="line"/>
			<point x="112" y="540" type="line"/>
			<point x="128" y="642" type="line"/>
			<point x="132" y="642" type="line"/>
			<point x="174" y="418" type="line"/>
			<point x="200" y="418" type="line"/>
			<point x="330" y="642" type="line"/>
			<point x="334" y="642" type="line"/>
			<point x="310" y="540" type="line"/>
			<point x="276" y="370" type="line"/>
			<point x="304" y="370" type="line"/>
			<point x="366" y="676" type="line"/>
			<point x="324" y="676" type="line"/>
			<point x="244" y="544" type="line"/>
			<point x="196" y="456" type="line"/>
			<point x="192" y="456" type="line"/>
			<point x="178" y="544" type="line"/>
			<point x="154" y="676" type="line"/>
			<point x="112" y="676" type="line"/>
		</contour>
	</outline>
</glyph>
<glyph name="creativecommons" format="2">
	<unicode hex="1F16D"/>
	<advance width="660"/>
	<outline>
		<contour>
			<point x="298" y="-12" type="curve" smooth="yes"/>
			<point x="514" y="-12"/>
			<point x="652" y="190"/>
			<point x="652" y="376" type="curve" smooth="yes"/>
			<point x="652" y="540"/>
			<point x="548" y="652"/>
			<point x="394" y="652" type="curve" smooth="yes"/>
			<point x="178" y="652"/>
			<point x="40" y="450"/>
			<point x="40" y="264" type="curve" smooth="yes"/>
			<point x="40" y="100"/>
			<point x="144" y="-12"/>
		</contour>
		<contour>
			<point x="300" y="12" type="curve" smooth="yes"/>
			<point x="158" y="12"/>
			<point x="66" y="112"/>
			<point x="66" y="268" type="curve" smooth="yes"/>
			<point x="66" y="434"/>
			<point x="194" y="628"/>
			<point x="392" y="628" type="curve" smooth="yes"/>
			<point x="534" y="628"/>
			<point x="626" y="528"/>
			<point x="626" y="372" type="curve" smooth="yes"/>
			<point x="626" y="206"/>
			<point x="498" y="12"/>
		</contour>
		<contour>
			<point x="218" y="128" type="curve" smooth="yes"/>
			<point x="262" y="128"/>
			<point x="290" y="154"/>
			<point x="308" y="186" type="curve"/>
			<point x="288" y="198" type="line"/>
			<point x="272" y="172"/>
			<point x="254" y="154"/>
			<point x="220" y="154" type="curve" smooth="yes"/>
			<point x="184" y="154"/>
			<point x="162" y="188"/>
			<point x="162" y="248" type="curve" smooth="yes"/>
			<point x="162" y="376"/>
			<point x="230" y="486"/>
			<point x="290" y="486" type="curve" smooth="yes"/>
			<point x="316" y="486"/>
			<point x="324" y="474"/>
			<point x="328" y="446" type="curve"/>
			<point x="350" y="452" type="line"/>
			<point x="349" y="486"/>
			<point x="330" y="512"/>
			<point x="292" y="512" type="curve" smooth="yes"/>
			<point x="218" y="512"/>
			<point x="134" y="390"/>
			<point x="134" y="246" type="curve" smooth="yes"/>
			<point x="134" y="170"/>
			<point x="166" y="128"/>
		</contour>
		<contour>
			<point x="418" y="128" type="curve" smooth="yes"/>
			<point x="462" y="128"/>
			<point x="490" y="154"/>
			<point x="508" y="186" type="curve"/>
			<point x="488" y="198" type="line"/>
			<point x="472" y="172"/>
			<point x="454" y="154"/>
			<point x="420" y="154" type="curve" smooth="yes"/>
			<point x="384" y="154"/>
			<point x="362" y="188"/>
			<point x="362" y="248" type="curve" smooth="yes"/>
			<point x="362" y="376"/>
			<point x="430" y="486"/>
			<point x="490" y="486" type="curve" smooth="yes"/>
			<point x="516" y="486"/>
			<point x="524" y="474"/>
			<point x="528" y="446" type="curve"/>
			<point x="550" y="452" type="line"/>
			<point x="549" y="486"/>
			<point x="530" y="512"/>
			<point x="492" y="512" type="curve" smooth="yes"/>
			<point x="418" y="512"/>
			<point x="334" y="390"/>
			<point x="334" y="246" type="curve" smooth="yes"/>
			<point x="334" y="170"/>
			<point x="366" y="128"/>
		</contour>
	</outline>
</glyph>
<glyph name="Lje.a" format="2">
	<advance width="726"/>
	<outline>
		<contour>
			<point x="-46" y="0" type="line"/>
			<point x="-16" y="0" type="line"/>
			<point x="194" y="400" type="line" smooth="yes"/>
			<point x="232" y="470"/>
			<point x="272" y="550"/>
			<point x="308" y="622" type="curve"/>
			<point x="312" y="622" type="line"/>
			<point x="318" y="548"/>
			<point x="326" y="472"/>
			<point x="334" y="400" type="curve" smooth="yes"/>
			<point x="370" y="0" type="line"/>
			<point x="408" y="0" type="line" smooth="yes"/>
			<point x="566" y="0"/>
			<point x="672" y="70"/>
			<point x="672" y="210" type="curve" smooth="yes"/>
			<point x="672" y="302"/>
			<point x="596" y="364"/>
			<point x="476" y="364" type="curve" smooth="yes"/>
			<point x="364" y="364" type="line"/>
			<point x="336" y="660" type="line"/>
			<point x="302" y="660" type="line"/>
		</contour>
		<contour>
			<point x="464" y="338" type="line" smooth="yes"/>
			<point x="578" y="338"/>
			<point x="642" y="286"/>
			<point x="642" y="204" type="curve" smooth="yes"/>
			<point x="642" y="84"/>
			<point x="542" y="26"/>
			<point x="398" y="26" type="curve" smooth="yes"/>
			<point x="396" y="26" type="line"/>
			<point x="366" y="338" type="line"/>
		</contour>
	</outline>
</glyph>
<glyph name="a.supa" format="2">
	<advance width="323"/>
	<outline>
		<contour>
			<point x="170" y="402" type="curve" smooth="yes"/>
			<point x="206" y="402"/>
			<point x="250" y="424"/>
			<point x="280" y="452" type="curve"/>
			<point x="284" y="452" type="line"/>
			<point x="276" y="410" type="line"/>
			<point x="298" y="410" type="line"/>
			<point x="336" y="604" type="line" smooth="yes"/>
			<point x="338" y="616"/>
			<point x="341" y="634"/>
			<point x="341" y="646" type="curve" smooth="yes"/>
			<point x="341" y="710"/>
			<point x="308" y="734"/>
			<point x="250" y="734" type="curve" smooth="yes"/>
			<point x="214" y="734"/>
			<point x="174" y="720"/>
			<point x="142" y="702" type="curve"/>
			<point x="152" y="680" type="line"/>
			<point x="184" y="696"/>
			<point x="218" y="710"/>
			<point x="248" y="710" type="curve" smooth="yes"/>
			<point x="298" y="710"/>
			<point x="315" y="686"/>
			<point x="315" y="644" type="curve" smooth="yes"/>
			<point x="315" y="632"/>
			<point x="314" y="623"/>
			<point x="310" y="608" type="curve"/>
			<point x="182" y="602"/>
			<point x="90" y="567"/>
			<point x="90" y="478" type="curve" smooth="yes"/>
			<point x="90" y="428"/>
			<point x="126" y="402"/>
		</contour>
		<contour>
			<point x="172" y="426" type="curve" smooth="yes"/>
			<point x="140" y="426"/>
			<point x="116" y="442"/>
			<point x="116" y="482" type="curve" smooth="yes"/>
			<point x="116" y="550"/>
			<point x="196" y="582"/>
			<point x="306" y="586" type="curve"/>
			<point x="286" y="484" type="line"/>
			<point x="246" y="448"/>
			<point x="208" y="426"/>
		</contour>
	</outline>
</glyph>
<glyph name="aogonek.e" format="2">
	<advance width="474"/>
	<outline>
		<contour>
			<point x="162" y="-212" type="curve" smooth="yes"/>
			<point x="188" y="-212"/>
			<point x="210" y="-202"/>
			<point x="234" y="-180" type="curve"/>
			<point x="222" y="-164" type="line"/>
			<point x="200" y="-180"/>
			<point x="186" y="-186"/>
			<point x="166" y="-186" type="curve" smooth="yes"/>
			<point x="140" y="-186"/>
			<point x="122" y="-168"/>
			<point x="122" y="-138" type="curve" smooth="yes"/>
			<point x="122" y="-94"/>
			<point x="160" y="-36"/>
			<point x="222" y="-2" type="curve" smooth="yes"/>
			<point x="262" y="20"/>
			<point x="286" y="34"/>
			<point x="328" y="62" type="curve"/>
			<point x="332" y="62" type="line"/>
			<point x="324" y="0" type="line"/>
			<point x="348" y="0" type="line"/>
			<point x="406" y="296" type="line" smooth="yes"/>
			<point x="410" y="316"/>
			<point x="414" y="340"/>
			<point x="414" y="358" type="curve" smooth="yes"/>
			<point x="414" y="456"/>
			<point x="364" y="490"/>
			<point x="282" y="490" type="curve" smooth="yes"/>
			<point x="228" y="490"/>
			<point x="168" y="466"/>
			<point x="124" y="440" type="curve"/>
			<point x="136" y="416" type="line"/>
			<point x="182" y="444"/>
			<point x="234" y="464"/>
			<point x="280" y="464" type="curve" smooth="yes"/>
			<point x="354" y="464"/>
			<point x="386" y="436"/>
			<point x="386" y="356" type="curve" smooth="yes"/>
			<point x="386" y="336"/>
			<point x="384" y="320"/>
			<point x="378" y="294" type="curve"/>
			<point x="170" y="288"/>
			<point x="40" y="234"/>
			<point x="40" y="102" type="curve" smooth="yes"/>
			<point x="40" y="26"/>
			<point x="96" y="-12"/>
			<point x="158" y="-12" type="curve" smooth="yes"/>
			<point x="170" y="-12"/>
			<point x="176" y="-12"/>
			<point x="204" y="-6" type="curve"/>
			<point x="192" y="4" type="line"/>
			<point x="140" y="-30"/>
			<point x="92" y="-90"/>
			<point x="92" y="-144" type="curve" smooth="yes"/>
			<point x="92" y="-190"/>
			<point x="122" y="-212"/>
		</contour>
		<contour>
			<point x="164" y="14" type="curve" smooth="yes"/>
			<point x="110" y="14"/>
			<point x="68" y="42"/>
			<point x="68" y="108" type="curve" smooth="yes"/>
			<point x="68" y="214"/>
			<point x="188" y="264"/>
			<point x="374" y="268" type="curve"/>
			<point x="340" y="100" type="line"/>
			<point x="274" y="42"/>
			<point x="216" y="14"/>
		</contour>
	</outline>
	<anchor name="aboveLC" x="290" y="502"/>
</glyph>
<glyph name="asperacutecmb" format="2">
	<outline>
		<contour>
			<point x="72" y="558" type="curve"/>
			<point x="80" y="576" type="line"/>
			<point x="46" y="586"/>
			<point x="30" y="608"/>
			<point x="30" y="636" type="curve" smooth="yes"/>
			<point x="30" y="678"/>
			<point x="72" y="712"/>
			<point x="130" y="714" type="curve"/>
			<point x="134" y="736" type="line"/>
			<point x="60" y="732"/>
			<point x="2" y="696"/>
			<point x="2" y="630" type="curve" smooth="yes"/>
			<point x="2" y="594"/>
			<point x="24" y="568"/>
		</contour>
		<contour>
			<point x="120" y="564" type="line"/>
			<point x="144" y="564" type="line"/>
			<point x="240" y="726" type="line"/>
			<point x="238" y="730" type="line"/>
			<point x="208" y="730" type="line"/>
		</contour>
	</outline>
	<anchor name="_aboveLC" x="100" y="502"/>
</glyph>
<glyph name="caroncmb.cap" format="2">
	<outline>
		<contour>
			<point x="124" y="712" type="line"/>
			<point x="150" y="712" type="line"/>
			<point x="310" y="832" type="line"/>
			<point x="276" y="832" type="line"/>
			<point x="140" y="742" type="line"/>
			<point x="136" y="742" type="line"/>
			<point x="50" y="832" type="line"/>
			<point x="20" y="832" type="line"/>
		</contour>
	</outline>
	<anchor name="_aboveUC" x="130" y="682"/>
	<anchor name="aboveUC" x="160" y="842"/>
</glyph>
<glyph name="caroncomma.cap" format="2">
	<outline>
		<contour>
			<point x="124" y="712" type="line"/>
			<point x="150" y="712" type="line"/>
			<point x="310" y="812" type="line"/>
			<point x="276" y="812" type="line"/>
			<point x="140" y="742" type="line"/>
			<point x="136" y="742" type="line"/>
			<point x="50" y="812" type="line"/>
			<point x="20" y="812" type="line"/>
		</contour>
		<component base="commaabovecmb.cap" xOffset="30" yOffset="80"/>
	</outline>
	<anchor name="_aboveUC" x="130" y="682"/>
</glyph>
<glyph name="comma.dnom" format="2">
	<advance width="146"/>
	<outline>
		<contour>
			<point x="-24" y="-104" type="line"/>
			<point x="26" y="-78"/>
			<point x="64" y="-36"/>
			<point x="64" y="18" type="curve" smooth="yes"/>
			<point x="64" y="44"/>
			<point x="52" y="60"/>
			<point x="34" y="60" type="curve" smooth="yes"/>
			<point x="16" y="60"/>
			<point x="0" y="49"/>
			<point x="0" y="25" type="curve" smooth="yes"/>
			<point x="0" y="7"/>
			<point x="12" y="-2"/>
			<point x="26" y="-2" type="curve" smooth="yes"/>
			<point x="34" y="-2"/>
			<point x="40" y="-2"/>
			<point x="48" y="6" type="curve"/>
			<point x="30" y="40" type="line"/>
			<point x="32" y="0" type="line"/>
			<point x="26" y="-38"/>
			<point x="0" y="-64"/>
			<point x="-34" y="-82" type="curve"/>
		</contour>
	</outline>
</glyph>
<glyph name="commaturnedabovecmb.cap" format="2">
	<outline>
		<contour>
			<point x="144" y="706" type="curve" smooth="yes"/>
			<point x="166" y="706"/>
			<point x="186" y="720"/>
			<point x="186" y="744" type="curve" smooth="yes"/>
			<point x="186" y="762"/>
			<point x="170" y="776"/>
			<point x="154" y="776" type="curve" smooth="yes"/>
			<point x="146" y="776"/>
			<point x="138" y="774"/>
			<point x="130" y="768" type="curve"/>
			<point x="134" y="800"/>
			<point x="156" y="830"/>
			<point x="198" y="844" type="curve"/>
			<point x="190" y="866" type="line"/>
			<point x="124" y="846"/>
			<point x="100" y="798"/>
			<point x="100" y="756" type="curve" smooth="yes"/>
			<point x="100" y="727"/>
			<point x="116" y="706"/>
		</contour>
	</outline>
	<anchor name="_aboveUC" x="130" y="682"/>
	<guideline x="126" y="662" angle="79" identifier="Z58OyRXxIq"/>
</glyph>
<glyph name="eogonek.d" format="2">
	<advance width="468"/>
	<outline>
		<contour>
			<point x="184" y="-212" type="curve" smooth="yes"/>
			<point x="210" y="-212"/>
			<point x="232" y="-202"/>
			<point x="256" y="-180" type="curve"/>
			<point x="244" y="-164" type="line"/>
			<point x="222" y="-180"/>
			<point x="208" y="-186"/>
			<point x="188" y="-186" type="curve" smooth="yes"/>
			<point x="162" y="-186"/>
			<point x="144" y="-168"/>
			<point x="144" y="-138" type="curve" smooth="yes"/>
			<point x="144" y="-94"/>
			<point x="176" y="-40"/>
			<point x="274" y="-6" type="curve" smooth="yes"/>
			<point x="310" y="6"/>
			<point x="330" y="14"/>
			<point x="364" y="40" type="curve"/>
			<point x="350" y="58" type="line"/>
			<point x="314" y="32"/>
			<point x="276" y="14"/>
			<point x="226" y="14" type="curve" smooth="yes"/>
			<point x="144" y="14"/>
			<point x="72" y="60"/>
			<point x="72" y="186" type="curve" smooth="yes"/>
			<point x="72" y="344"/>
			<point x="182" y="464"/>
			<point x="288" y="464" type="curve" smooth="yes"/>
			<point x="374" y="464"/>
			<point x="404" y="396"/>
			<point x="404" y="328" type="curve" smooth="yes"/>
			<point x="404" y="306"/>
			<point x="402" y="288"/>
			<point x="398" y="268" type="curve"/>
			<point x="74" y="268" type="line"/>
			<point x="68" y="242" type="line"/>
			<point x="420" y="242" type="line"/>
			<point x="426" y="262"/>
			<point x="432" y="290"/>
			<point x="432" y="322" type="curve" smooth="yes"/>
			<point x="432" y="420"/>
			<point x="392" y="490"/>
			<point x="290" y="490" type="curve" smooth="yes"/>
			<point x="168" y="490"/>
			<point x="44" y="364"/>
			<point x="44" y="184" type="curve" smooth="yes"/>
			<point x="44" y="56"/>
			<point x="114" y="-12"/>
			<point x="224" y="-12" type="curve"/>
			<point x="238" y="2" type="line"/>
			<point x="164" y="-26"/>
			<point x="114" y="-88"/>
			<point x="114" y="-144" type="curve" smooth="yes"/>
			<point x="114" y="-190"/>
			<point x="144" y="-212"/>
		</contour>
	</outline>
	<anchor name="aboveLC" x="300" y="502"/>
	<anchor name="belowLC" x="170" y="-222"/>
</glyph>
<glyph name="eogonek.supd" format="2">
	<advance width="316"/>
	<outline>
		<contour>
			<point x="196" y="248" type="curve" smooth="yes"/>
			<point x="220" y="248"/>
			<point x="238" y="260"/>
			<point x="254" y="274" type="curve"/>
			<point x="242" y="290" type="line"/>
			<point x="230" y="279"/>
			<point x="216" y="272"/>
			<point x="198" y="272" type="curve" smooth="yes"/>
			<point x="177" y="272"/>
			<point x="164" y="282"/>
			<point x="164" y="306" type="curve" smooth="yes"/>
			<point x="164" y="340"/>
			<point x="196" y="386"/>
			<point x="262" y="410" type="curve" smooth="yes"/>
			<point x="288" y="420"/>
			<point x="296" y="424"/>
			<point x="312" y="436" type="curve"/>
			<point x="302" y="454" type="line"/>
			<point x="272" y="434"/>
			<point x="246" y="426"/>
			<point x="208" y="426" type="curve" smooth="yes"/>
			<point x="160" y="426"/>
			<point x="120" y="457"/>
			<point x="120" y="540" type="curve" smooth="yes"/>
			<point x="120" y="638"/>
			<point x="190" y="710"/>
			<point x="258" y="710" type="curve" smooth="yes"/>
			<point x="300" y="710"/>
			<point x="332" y="682"/>
			<point x="332" y="622" type="curve" smooth="yes"/>
			<point x="332" y="611"/>
			<point x="332" y="600"/>
			<point x="328" y="584" type="curve"/>
			<point x="334" y="590" type="line"/>
			<point x="116" y="590" type="line"/>
			<point x="113" y="566" type="line"/>
			<point x="350" y="566" type="line"/>
			<point x="354" y="580"/>
			<point x="358" y="599"/>
			<point x="358" y="624" type="curve" smooth="yes"/>
			<point x="358" y="692"/>
			<point x="322" y="734"/>
			<point x="260" y="734" type="curve" smooth="yes"/>
			<point x="178" y="734"/>
			<point x="92" y="656"/>
			<point x="92" y="534" type="curve" smooth="yes"/>
			<point x="92" y="442"/>
			<point x="144" y="402"/>
			<point x="206" y="402" type="curve"/>
			<point x="222" y="410" type="line"/>
			<point x="176" y="392"/>
			<point x="138" y="348"/>
			<point x="138" y="302" type="curve" smooth="yes"/>
			<point x="138" y="263"/>
			<point x="164" y="248"/>
		</contour>
	</outline>
</glyph>
<glyph name="four.cap" format="2">
	<advance width="456"/>
	<outline>
		<contour>
			<point x="300" y="0" type="line"/>
			<point x="341" y="204" type="line"/>
			<point x="432" y="204" type="line"/>
			<point x="438" y="230" type="line"/>
			<point x="346" y="230" type="line"/>
			<point x="432" y="660" type="line"/>
			<point x="412" y="660" type="line"/>
			<point x="28" y="220" type="line"/>
			<point x="26" y="204" type="line"/>
			<point x="313" y="204" type="line"/>
			<point x="272" y="0" type="line"/>
		</contour>
		<contour>
			<point x="72" y="230" type="line"/>
			<point x="314" y="510" type="line" smooth="yes"/>
			<point x="340" y="540"/>
			<point x="366" y="572"/>
			<point x="394" y="608" type="curve"/>
			<point x="398" y="608" type="line"/>
			<point x="388" y="565"/>
			<point x="379" y="522"/>
			<point x="372" y="490" type="curve" smooth="yes"/>
			<point x="318" y="230" type="line"/>
		</contour>
	</outline>
</glyph>
<glyph name="l.supa" format="2">
	<advance width="151"/>
	<outline>
		<contour>
			<point x="94" y="410" type="line"/>
			<point x="120" y="410" type="line"/>
			<point x="214" y="884" type="line"/>
			<point x="188" y="884" type="line"/>
		</contour>
	</outline>
</glyph>
<glyph name="lbar.a" format="2">
	<advance width="256"/>
	<outline>
		<contour>
			<point x="40" y="388" type="line"/>
			<point x="271" y="388" type="line"/>
			<point x="277" y="412" type="line"/>
			<point x="147" y="412" type="line"/>
			<point x="46" y="408" type="line"/>
		</contour>
		<component base="l.a" xOffset="20"/>
	</outline>
	<anchor name="aboveUC" x="220" y="732"/>
	<anchor name="belowLC" x="80" y="-22"/>
</glyph>
<glyph name="lenisgrave.cap" format="2">
	<advance width="170"/>
	<outline>
		<contour>
			<point x="44" y="446" type="line"/>
			<point x="106" y="468"/>
			<point x="152" y="508"/>
			<point x="152" y="580" type="curve" smooth="yes"/>
			<point x="152" y="638"/>
			<point x="110" y="662"/>
			<point x="63" y="662" type="curve"/>
			<point x="58" y="636" type="line"/>
			<point x="98" y="636"/>
			<point x="122" y="616"/>
			<point x="122" y="574" type="curve" smooth="yes"/>
			<point x="122" y="530"/>
			<point x="90" y="488"/>
			<point x="36" y="468" type="curve"/>
		</contour>
		<contour>
			<point x="210" y="450" type="line"/>
			<point x="230" y="450" type="line"/>
			<point x="222" y="660" type="line"/>
			<point x="192" y="660" type="line"/>
			<point x="190" y="656" type="line"/>
		</contour>
	</outline>
</glyph>
<glyph name="one.dnom" format="2">
	<advance width="340"/>
	<outline>
		<contour>
			<point x="122" y="0" type="line"/>
			<point x="148" y="0" type="line"/>
			<point x="226" y="390" type="line"/>
			<point x="204" y="390" type="line"/>
			<point x="176" y="370"/>
			<point x="150" y="362"/>
			<point x="100" y="354" type="curve"/>
			<point x="96" y="334" type="line"/>
			<point x="188" y="334" type="line"/>
		</contour>
	</outline>
</glyph>
<glyph name="one.pnum" format="2">
	<advance width="310"/>
	<outline>
		<contour>
			<point x="112" y="0" type="line"/>
			<point x="140" y="0" type="line"/>
			<point x="268" y="640" type="line"/>
			<point x="244" y="640" type="line"/>
			<point x="214" y="622"/>
			<point x="168" y="608"/>
			<point x="120" y="602" type="curve"/>
			<point x="116" y="582" type="line"/>
			<point x="228" y="582" type="line"/>
		</contour>
	</outline>
</glyph>
<glyph name="seven.onum" format="2">
	<advance width="436"/>
	<outline>
		<contour>
			<point x="98" y="-70" type="curve"/>
			<point x="130" y="-70" type="line"/>
			<point x="180" y="174"/>
			<point x="246" y="356"/>
			<point x="446" y="550" type="curve"/>
			<point x="450" y="570" type="line"/>
			<point x="88" y="570" type="line"/>
			<point x="82" y="544" type="line"/>
			<point x="408" y="544" type="line"/>
			<point x="226" y="362"/>
			<point x="154" y="184"/>
		</contour>
	</outline>
</glyph>
<glyph name="six.cap" format="2">
	<advance width="456"/>
	<outline>
		<contour>
			<point x="214" y="-12" type="curve" smooth="yes"/>
			<point x="325" y="-12"/>
			<point x="414" y="88"/>
			<point x="414" y="222" type="curve" smooth="yes"/>
			<point x="414" y="318"/>
			<point x="354" y="388"/>
			<point x="250" y="388" type="curve" smooth="yes"/>
			<point x="198" y="388"/>
			<point x="130" y="360"/>
			<point x="80" y="298" type="curve"/>
			<point x="78" y="260" type="line"/>
			<point x="138" y="340"/>
			<point x="212" y="360"/>
			<point x="248" y="360" type="curve" smooth="yes"/>
			<point x="339" y="360"/>
			<point x="386" y="302"/>
			<point x="386" y="212" type="curve" smooth="yes"/>
			<point x="386" y="105"/>
			<point x="304" y="14"/>
			<point x="216" y="14" type="curve" smooth="yes"/>
			<point x="131" y="14"/>
			<point x="80" y="94"/>
			<point x="80" y="202" type="curve" smooth="yes"/>
			<point x="80" y="445"/>
			<point x="196" y="646"/>
			<point x="336" y="646" type="curve" smooth="yes"/>
			<point x="385" y="646"/>
			<point x="419" y="625"/>
			<point x="444" y="580" type="curve"/>
			<point x="468" y="596" type="line"/>
			<point x="441" y="643"/>
			<point x="401" y="672"/>
			<point x="338" y="672" type="curve" smooth="yes"/>
			<point x="176" y="672"/>
			<point x="52" y="467"/>
			<point x="52" y="196" type="curve" smooth="yes"/>
			<point x="52" y="76"/>
			<point x="113" y="-12"/>
		</contour>
	</outline>
</glyph>
<glyph name="three.dnom" format="2">
	<advance width="344"/>
	<outline>
		<contour>
			<point x="126" y="-12" type="curve" smooth="yes"/>
			<point x="196" y="-12"/>
			<point x="258" y="32"/>
			<point x="258" y="108" type="curve" smooth="yes"/>
			<point x="258" y="142"/>
			<point x="234" y="184"/>
			<point x="182" y="198" type="curve"/>
			<point x="242" y="214"/>
			<point x="282" y="260"/>
			<point x="282" y="308" type="curve" smooth="yes"/>
			<point x="282" y="368"/>
			<point x="240" y="402"/>
			<point x="180" y="402" type="curve" smooth="yes"/>
			<point x="140" y="402"/>
			<point x="102" y="388"/>
			<point x="68" y="360" type="curve"/>
			<point x="82" y="339" type="line"/>
			<point x="112" y="364"/>
			<point x="147" y="378"/>
			<point x="178" y="378" type="curve" smooth="yes"/>
			<point x="226" y="378"/>
			<point x="254" y="350"/>
			<point x="254" y="308" type="curve" smooth="yes"/>
			<point x="254" y="264"/>
			<point x="214" y="214"/>
			<point x="112" y="214" type="curve"/>
			<point x="106" y="190" type="line"/>
			<point x="188" y="190"/>
			<point x="230" y="148"/>
			<point x="230" y="102" type="curve" smooth="yes"/>
			<point x="230" y="44"/>
			<point x="182" y="12"/>
			<point x="128" y="12" type="curve" smooth="yes"/>
			<point x="74" y="12"/>
			<point x="44" y="44"/>
			<point x="24" y="82" type="curve"/>
			<point x="2" y="68" type="line"/>
			<point x="22" y="28"/>
			<point x="66" y="-12"/>
		</contour>
	</outline>
</glyph>
